<svg width="25" height="26" viewBox="0 0 25 26" fill="none" xmlns="http://www.w3.org/2000/svg">
<path d="M12.5 0.5C5.60722 0.5 0 6.10722 0 13C0 19.8928 5.60722 25.5 12.5 25.5C19.3928 25.5 25 19.8928 25 13C25 6.10722 19.3928 0.5 12.5 0.5ZM17.9688 14.0416H13.5416V18.4688C13.5416 19.0438 13.0751 19.5104 12.5 19.5104C11.9249 19.5104 11.4584 19.0438 11.4584 18.4688V14.0416H7.03125C6.45618 14.0416 5.98965 13.5751 5.98965 13C5.98965 12.4249 6.45618 11.9584 7.03125 11.9584H11.4584V7.53125C11.4584 6.95618 11.9249 6.48965 12.5 6.48965C13.0751 6.48965 13.5416 6.95618 13.5416 7.53125V11.9584H17.9688C18.5438 11.9584 19.0104 12.4249 19.0104 13C19.0104 13.5751 18.5438 14.0416 17.9688 14.0416Z" fill="#EEEFEF"/>
</svg>
