<svg width="21" height="21" viewBox="0 0 21 21" fill="none" xmlns="http://www.w3.org/2000/svg">
<path d="M13.7664 12.0513C13.6642 12.0513 13.5639 12.0925 13.4917 12.1648C13.4194 12.2374 13.3778 12.3377 13.3778 12.4399C13.3778 12.5421 13.4194 12.6424 13.4917 12.7147C13.5639 12.7869 13.6642 12.8286 13.7664 12.8286C13.8686 12.8286 13.9689 12.787 14.0412 12.7147C14.1135 12.6424 14.1551 12.5421 14.1551 12.4399C14.1551 12.3377 14.1135 12.2374 14.0412 12.1648C13.9689 12.0924 13.8686 12.0513 13.7664 12.0513Z" fill="black"/>
<path d="M20.2697 11.5848C20.2697 11.0348 19.9106 10.5673 19.4147 10.4037V2.53206C19.4147 1.37485 18.4732 0.43335 17.316 0.43335H16.4898C15.453 0.43335 14.5898 1.18935 14.4214 2.17897C13.5869 2.34593 12.9561 3.08417 12.9561 3.96707V4.39758C12.9561 4.61219 13.1302 4.78623 13.3448 4.78623H16.2148C16.4294 4.78623 16.6035 4.61219 16.6035 4.39758V3.96707C16.6035 3.11041 16.0096 2.39024 15.212 2.1956C15.3612 1.62942 15.8774 1.21065 16.4898 1.21065H17.316C18.0446 1.21065 18.6374 1.80342 18.6374 2.53206V10.3411H10.2857C10.0662 10.1478 9.7786 10.0302 9.46383 10.0302H6.04651C5.73174 10.0302 5.44414 10.1478 5.22467 10.3411H1.6145C0.928726 10.3411 0.370819 10.899 0.370819 11.5848C0.370819 12.1348 0.729893 12.6023 1.22585 12.7659V14.2924C1.22585 15.4403 1.62845 16.4959 2.29953 17.3257L1.65286 18.4921C1.32713 19.0796 1.53545 19.8309 2.11726 20.1669C2.30847 20.2773 2.52021 20.3336 2.73486 20.3336C2.84632 20.3336 2.95861 20.3183 3.06914 20.2876C3.39234 20.1978 3.65977 19.9866 3.82211 19.693L4.31597 18.7995C4.85669 19.0093 5.44414 19.1246 6.05805 19.1246H14.5825C15.1964 19.1246 15.7838 19.0093 16.3245 18.7995L16.8184 19.693C16.9807 19.9866 17.2482 20.1978 17.5714 20.2876C17.6819 20.3183 17.7941 20.3335 17.9057 20.3335C18.1202 20.3335 18.332 20.2772 18.5233 20.1668C19.1051 19.8309 19.3134 19.0796 18.9877 18.4921L18.341 17.3257C19.0121 16.4959 19.4147 15.4403 19.4147 14.2924V12.7659C19.9106 12.6023 20.2697 12.1348 20.2697 11.5848ZM15.8261 3.96707V4.00893H13.7334V3.96707C13.7334 3.39008 14.2028 2.92071 14.7797 2.92071C15.3567 2.92071 15.8261 3.39008 15.8261 3.96707ZM6.04651 10.8075H9.46383C9.72178 10.8075 9.93161 11.0173 9.93161 11.2753V15.3158H5.57873V11.2753C5.57873 11.0173 5.7886 10.8075 6.04651 10.8075ZM1.6145 11.1184H4.81165C4.80516 11.1698 4.80143 11.2221 4.80143 11.2753V12.0512H1.6145C1.35733 12.0512 1.14812 11.842 1.14812 11.5848C1.14812 11.3276 1.35733 11.1184 1.6145 11.1184ZM3.14182 19.3169C3.08126 19.4264 2.98154 19.5052 2.86094 19.5387C2.7403 19.5722 2.61426 19.5562 2.50587 19.4936C2.28888 19.3683 2.21115 19.0881 2.33269 18.869L2.86234 17.9137C3.09463 18.1189 3.34671 18.3022 3.61535 18.4602L3.14182 19.3169ZM18.1347 19.4937C18.0263 19.5562 17.9002 19.5722 17.7796 19.5387C17.659 19.5052 17.5592 19.4264 17.4987 19.3169L17.0251 18.4602C17.2938 18.3022 17.5458 18.1189 17.7781 17.9137L18.3078 18.869C18.4294 19.0881 18.3516 19.3683 18.1347 19.4937ZM19.026 12.0512H15.5152C15.3006 12.0512 15.1266 12.2252 15.1266 12.4398C15.1266 12.6544 15.3006 12.8285 15.5152 12.8285H18.6374V14.2924C18.6374 16.5283 16.8183 18.3473 14.5825 18.3473H6.05805C3.82219 18.3473 2.00315 16.5283 2.00315 14.2924V12.8285H4.80143V15.7045C4.80143 15.9191 4.97547 16.0931 5.19008 16.0931H10.3203C10.5349 16.0931 10.7089 15.9191 10.7089 15.7045V12.8285H12.0176C12.2323 12.8285 12.4063 12.6544 12.4063 12.4398C12.4063 12.2252 12.2323 12.0512 12.0176 12.0512H10.7089V11.2753C10.7089 11.2221 10.7052 11.1698 10.6987 11.1184H19.026C19.2832 11.1184 19.4924 11.3276 19.4924 11.5848C19.4924 11.842 19.2832 12.0512 19.026 12.0512Z" fill="black"/>
</svg>
