<svg width="20" height="19" viewBox="0 0 20 19" fill="none" xmlns="http://www.w3.org/2000/svg">
<g clip-path="url(#clip0_354_1104)">
<path d="M18.6294 9.24381V3.03671C18.6294 1.52688 17.3917 0.298584 15.8704 0.298584H3.94915C2.42782 0.298584 1.19016 1.52692 1.19016 3.03671V9.32388C0.453282 10.0884 0 11.1243 0 12.2633V16.9699C0 17.8339 0.708237 18.5368 1.57881 18.5368C2.44935 18.5368 3.15759 17.8339 3.15759 16.9699V16.4838H16.7413V16.9699C16.7413 17.8339 17.4496 18.5368 18.3201 18.5368C19.1906 18.5368 19.8989 17.8339 19.8989 16.9699V12.2633C19.8989 11.084 19.4129 10.0153 18.6294 9.24381ZM3.94915 1.07001H15.8704C16.9631 1.07001 17.8521 1.95228 17.8521 3.03671V8.63673C17.614 8.49128 17.3607 8.36824 17.095 8.27066V6.98801C17.095 5.85093 16.1629 4.92585 15.0172 4.92585H11.6387C10.9432 4.92585 10.3268 5.26708 9.94948 5.78938C9.57214 5.26708 8.95578 4.92585 8.26025 4.92585H4.88179C3.73605 4.92585 2.80391 5.8509 2.80391 6.98801V8.27066C2.5085 8.37916 2.22832 8.51909 1.9675 8.68634V3.03671C1.96746 1.95228 2.85642 1.07001 3.94915 1.07001ZM4.28809 8.00768C4.04732 8.00768 3.81118 8.02781 3.58114 8.06584V6.98801C3.58114 6.2763 4.16458 5.69727 4.88172 5.69727H8.26017C8.97731 5.69727 9.56075 6.2763 9.56075 6.98801V8.00772H4.28809V8.00768ZM10.3381 6.98797C10.3381 6.27626 10.9215 5.69723 11.6387 5.69723H15.0171C15.7343 5.69723 16.3177 6.27626 16.3177 6.98797V8.0658C16.0876 8.02777 15.8515 8.00764 15.6107 8.00764H10.3381V6.98797ZM4.28809 8.7791H15.6107C17.5466 8.7791 19.1215 10.3421 19.1215 12.2633V13.4076H15.2235C15.0089 13.4076 14.8349 13.5804 14.8349 13.7933C14.8349 14.0063 15.0089 14.1791 15.2235 14.1791H19.1216V15.7125H0.7773V14.1791H11.337C11.5517 14.1791 11.7257 14.0063 11.7257 13.7933C11.7257 13.5804 11.5517 13.4076 11.337 13.4076H0.7773V12.2633C0.7773 10.3421 2.35223 8.7791 4.28809 8.7791ZM2.38029 16.9699C2.38029 17.4085 2.02075 17.7654 1.57881 17.7654C1.13688 17.7654 0.7773 17.4085 0.7773 16.9699V16.4838H2.38029V16.9699ZM18.3201 17.7654C17.8781 17.7654 17.5186 17.4085 17.5186 16.9699V16.4838H19.1216V16.9699C19.1216 17.4085 18.762 17.7654 18.3201 17.7654Z" fill="black"/>
<path d="M13.2801 14.179C13.4949 14.179 13.669 14.0063 13.669 13.7931C13.669 13.58 13.4949 13.4072 13.2801 13.4072C13.0654 13.4072 12.8913 13.58 12.8913 13.7931C12.8913 14.0063 13.0654 14.179 13.2801 14.179Z" fill="black"/>
</g>
<defs>
<clipPath id="clip0_354_1104">
<rect width="19.8989" height="18.1685" fill="white" transform="translate(0 0.298584)"/>
</clipPath>
</defs>
</svg>
