<svg width="27" height="26" viewBox="0 0 27 26" fill="none" xmlns="http://www.w3.org/2000/svg">
<g clip-path="url(#clip0_354_1515)">
<path d="M24.056 3.24995H22.0248V2.43747C22.0248 2.0065 21.8536 1.59318 21.5489 1.28844C21.2442 0.983702 20.8308 0.8125 20.3999 0.8125C19.9689 0.8125 19.5556 0.983702 19.2508 1.28844C18.9461 1.59318 18.7749 2.0065 18.7749 2.43747V3.24995H15.525V2.43747C15.525 2.0065 15.3538 1.59318 15.049 1.28844C14.7443 0.983702 14.331 0.8125 13.9 0.8125C13.469 0.8125 13.0557 0.983702 12.751 1.28844C12.4462 1.59318 12.275 2.0065 12.275 2.43747V3.24995H9.02509V2.43747C9.02509 2.0065 8.85389 1.59318 8.54915 1.28844C8.24441 0.983702 7.83109 0.8125 7.40013 0.8125C6.96916 0.8125 6.55584 0.983702 6.2511 1.28844C5.94636 1.59318 5.77516 2.0065 5.77516 2.43747V3.24995H3.74395C3.20524 3.24995 2.68859 3.46395 2.30767 3.84488C1.92674 4.22581 1.71274 4.74245 1.71274 5.28116V21.5308C1.71274 22.0696 1.92674 22.5862 2.30767 22.9671C2.68859 23.3481 3.20524 23.5621 3.74395 23.5621H15.1187C15.2265 23.5621 15.3298 23.5193 15.406 23.4431C15.4822 23.3669 15.525 23.2636 15.525 23.1558C15.525 23.0481 15.4822 22.9447 15.406 22.8686C15.3298 22.7924 15.2265 22.7496 15.1187 22.7496H3.74395C3.42102 22.7486 3.11159 22.6199 2.88324 22.3915C2.6549 22.1632 2.52619 21.8538 2.52522 21.5308V8.93734H25.2748V15.8435C25.2748 15.9512 25.3176 16.0545 25.3938 16.1307C25.4699 16.2069 25.5733 16.2497 25.681 16.2497C25.7888 16.2497 25.8921 16.2069 25.9683 16.1307C26.0445 16.0545 26.0873 15.9512 26.0873 15.8435V5.28116C26.0873 4.74245 25.8733 4.22581 25.4923 3.84488C25.1114 3.46395 24.5948 3.24995 24.056 3.24995ZM19.5874 2.43747C19.5874 2.22198 19.673 2.01533 19.8254 1.86296C19.9777 1.71058 20.1844 1.62498 20.3999 1.62498C20.6154 1.62498 20.822 1.71058 20.9744 1.86296C21.1268 2.01533 21.2124 2.22198 21.2124 2.43747V4.87492C21.2124 5.0904 21.1268 5.29706 20.9744 5.44943C20.822 5.6018 20.6154 5.6874 20.3999 5.6874C20.1844 5.6874 19.9777 5.6018 19.8254 5.44943C19.673 5.29706 19.5874 5.0904 19.5874 4.87492V2.43747ZM13.0875 2.43747C13.0875 2.22198 13.1731 2.01533 13.3255 1.86296C13.4779 1.71058 13.6845 1.62498 13.9 1.62498C14.1155 1.62498 14.3221 1.71058 14.4745 1.86296C14.6269 2.01533 14.7125 2.22198 14.7125 2.43747V4.87492C14.7125 5.0904 14.6269 5.29706 14.4745 5.44943C14.3221 5.6018 14.1155 5.6874 13.9 5.6874C13.6845 5.6874 13.4779 5.6018 13.3255 5.44943C13.1731 5.29706 13.0875 5.0904 13.0875 4.87492V2.43747ZM6.58764 2.43747C6.58764 2.22198 6.67324 2.01533 6.82561 1.86296C6.97798 1.71058 7.18464 1.62498 7.40013 1.62498C7.61561 1.62498 7.82227 1.71058 7.97464 1.86296C8.12701 2.01533 8.21261 2.22198 8.21261 2.43747V4.87492C8.21261 5.0904 8.12701 5.29706 7.97464 5.44943C7.82227 5.6018 7.61561 5.6874 7.40013 5.6874C7.18464 5.6874 6.97798 5.6018 6.82561 5.44943C6.67324 5.29706 6.58764 5.0904 6.58764 4.87492V2.43747ZM25.2748 8.12486H2.52522V5.28116C2.52619 4.95823 2.6549 4.6488 2.88324 4.42046C3.11159 4.19211 3.42102 4.0634 3.74395 4.06244H5.77516V4.87492C5.77516 5.30589 5.94636 5.71921 6.2511 6.02395C6.55584 6.32869 6.96916 6.49989 7.40013 6.49989C7.83109 6.49989 8.24441 6.32869 8.54915 6.02395C8.85389 5.71921 9.02509 5.30589 9.02509 4.87492V4.06244H12.275V4.87492C12.275 5.30589 12.4462 5.71921 12.751 6.02395C13.0557 6.32869 13.469 6.49989 13.9 6.49989C14.331 6.49989 14.7443 6.32869 15.049 6.02395C15.3538 5.71921 15.525 5.30589 15.525 4.87492V4.06244H18.7749V4.87492C18.7749 5.30589 18.9461 5.71921 19.2508 6.02395C19.5556 6.32869 19.9689 6.49989 20.3999 6.49989C20.8308 6.49989 21.2442 6.32869 21.5489 6.02395C21.8536 5.71921 22.0248 5.30589 22.0248 4.87492V4.06244H24.056C24.379 4.0634 24.6884 4.19211 24.9168 4.42046C25.1451 4.6488 25.2738 4.95823 25.2748 5.28116V8.12486Z" fill="#070A0F"/>
<path d="M13.0875 11.781C13.0875 11.5655 13.0019 11.3588 12.8496 11.2065C12.6972 11.0541 12.4905 10.9685 12.275 10.9685H10.6501C10.4346 10.9685 10.2279 11.0541 10.0756 11.2065C9.92319 11.3588 9.83759 11.5655 9.83759 11.781V12.9997C9.83759 13.2152 9.92319 13.4219 10.0756 13.5742C10.2279 13.7266 10.4346 13.8122 10.6501 13.8122H12.275C12.4905 13.8122 12.6972 13.7266 12.8496 13.5742C13.0019 13.4219 13.0875 13.2152 13.0875 12.9997V11.781ZM10.6501 12.9997V11.781H12.275V12.9997H10.6501Z" fill="#070A0F"/>
<path d="M8.21261 11.781C8.21261 11.5655 8.12701 11.3588 7.97464 11.2065C7.82227 11.0541 7.61561 10.9685 7.40013 10.9685H5.77516C5.55968 10.9685 5.35302 11.0541 5.20065 11.2065C5.04828 11.3588 4.96268 11.5655 4.96268 11.781V12.9997C4.96268 13.2152 5.04828 13.4219 5.20065 13.5742C5.35302 13.7266 5.55968 13.8122 5.77516 13.8122H7.40013C7.61561 13.8122 7.82227 13.7266 7.97464 13.5742C8.12701 13.4219 8.21261 13.2152 8.21261 12.9997V11.781ZM5.77516 12.9997V11.781H7.40013V12.9997H5.77516Z" fill="#070A0F"/>
<path d="M22.0248 13.8122C22.2403 13.8122 22.447 13.7266 22.5994 13.5742C22.7517 13.4219 22.8373 13.2152 22.8373 12.9997V11.781C22.8373 11.5655 22.7517 11.3588 22.5994 11.2065C22.447 11.0541 22.2403 10.9685 22.0248 10.9685H20.3999C20.1844 10.9685 19.9777 11.0541 19.8254 11.2065C19.673 11.3588 19.5874 11.5655 19.5874 11.781V12.9997C19.5874 13.2152 19.673 13.4219 19.8254 13.5742C19.9777 13.7266 20.1844 13.8122 20.3999 13.8122H22.0248ZM20.3999 11.781H22.0248V12.9997H20.3999V11.781Z" fill="#070A0F"/>
<path d="M13.0875 15.4372C13.0875 15.2218 13.0019 15.0151 12.8496 14.8627C12.6972 14.7104 12.4905 14.6248 12.275 14.6248H10.6501C10.4346 14.6248 10.2279 14.7104 10.0756 14.8627C9.92319 15.0151 9.83759 15.2218 9.83759 15.4372V16.656C9.83759 16.8715 9.92319 17.0781 10.0756 17.2305C10.2279 17.3828 10.4346 17.4685 10.6501 17.4685H12.275C12.4905 17.4685 12.6972 17.3828 12.8496 17.2305C13.0019 17.0781 13.0875 16.8715 13.0875 16.656V15.4372ZM10.6501 16.656V15.4372H12.275V16.656H10.6501Z" fill="#070A0F"/>
<path d="M8.21261 15.4372C8.21261 15.2218 8.12701 15.0151 7.97464 14.8627C7.82227 14.7104 7.61561 14.6248 7.40013 14.6248H5.77516C5.55968 14.6248 5.35302 14.7104 5.20065 14.8627C5.04828 15.0151 4.96268 15.2218 4.96268 15.4372V16.656C4.96268 16.8715 5.04828 17.0781 5.20065 17.2305C5.35302 17.3828 5.55968 17.4685 5.77516 17.4685H7.40013C7.61561 17.4685 7.82227 17.3828 7.97464 17.2305C8.12701 17.0781 8.21261 16.8715 8.21261 16.656V15.4372ZM5.77516 16.656V15.4372H7.40013V16.656H5.77516Z" fill="#070A0F"/>
<path d="M12.275 18.281H10.6501C10.4346 18.281 10.2279 18.3666 10.0756 18.519C9.92319 18.6713 9.83759 18.878 9.83759 19.0935V20.3122C9.83759 20.5277 9.92319 20.7344 10.0756 20.8867C10.2279 21.0391 10.4346 21.1247 10.6501 21.1247H12.275C12.4905 21.1247 12.6972 21.0391 12.8496 20.8867C13.0019 20.7344 13.0875 20.5277 13.0875 20.3122V19.0935C13.0875 18.878 13.0019 18.6713 12.8496 18.519C12.6972 18.3666 12.4905 18.281 12.275 18.281ZM10.6501 20.3122V19.0935H12.275V20.3122H10.6501Z" fill="#070A0F"/>
<path d="M15.525 13.8122H17.1499C17.3654 13.8122 17.5721 13.7266 17.7244 13.5742C17.8768 13.4219 17.9624 13.2152 17.9624 12.9997V11.781C17.9624 11.5655 17.8768 11.3588 17.7244 11.2065C17.5721 11.0541 17.3654 10.9685 17.1499 10.9685H15.525C15.3095 10.9685 15.1028 11.0541 14.9504 11.2065C14.7981 11.3588 14.7125 11.5655 14.7125 11.781V12.9997C14.7125 13.2152 14.7981 13.4219 14.9504 13.5742C15.1028 13.7266 15.3095 13.8122 15.525 13.8122ZM15.525 11.781H17.1499V12.9997H15.525V11.781Z" fill="#070A0F"/>
<path d="M14.7125 16.656C14.7125 16.8715 14.7981 17.0781 14.9504 17.2305C15.1028 17.3828 15.3095 17.4685 15.525 17.4685C15.6327 17.4685 15.736 17.4257 15.8122 17.3495C15.8884 17.2733 15.9312 17.17 15.9312 17.0622C15.9312 16.9545 15.8884 16.8511 15.8122 16.775C15.736 16.6988 15.6327 16.656 15.525 16.656V15.4372H17.1499C17.2577 15.4372 17.361 15.3944 17.4372 15.3183C17.5134 15.2421 17.5562 15.1387 17.5562 15.031C17.5562 14.9233 17.5134 14.8199 17.4372 14.7437C17.361 14.6676 17.2577 14.6248 17.1499 14.6248H15.525C15.3095 14.6248 15.1028 14.7104 14.9504 14.8627C14.7981 15.0151 14.7125 15.2218 14.7125 15.4372V16.656Z" fill="#070A0F"/>
<path d="M7.40013 18.281H5.77516C5.55968 18.281 5.35302 18.3666 5.20065 18.519C5.04828 18.6713 4.96268 18.878 4.96268 19.0935V20.3122C4.96268 20.5277 5.04828 20.7344 5.20065 20.8867C5.35302 21.0391 5.55968 21.1247 5.77516 21.1247H7.40013C7.61561 21.1247 7.82227 21.0391 7.97464 20.8867C8.12701 20.7344 8.21261 20.5277 8.21261 20.3122V19.0935C8.21261 18.878 8.12701 18.6713 7.97464 18.519C7.82227 18.3666 7.61561 18.281 7.40013 18.281ZM5.77516 20.3122V19.0935H7.40013V20.3122H5.77516Z" fill="#070A0F"/>
<path d="M20.8061 14.6248C19.7616 14.6248 18.7405 14.9345 17.8721 15.5148C17.0036 16.0951 16.3267 16.9199 15.927 17.8849C15.5273 18.8499 15.4227 19.9118 15.6264 20.9362C15.8302 21.9606 16.3332 22.9017 17.0718 23.6402C17.8104 24.3788 18.7514 24.8818 19.7758 25.0856C20.8003 25.2893 21.8621 25.1848 22.8271 24.785C23.7921 24.3853 24.6169 23.7084 25.1972 22.8399C25.7775 21.9715 26.0873 20.9504 26.0873 19.9059C26.0856 18.5058 25.5287 17.1634 24.5387 16.1733C23.5486 15.1833 22.2063 14.6264 20.8061 14.6248ZM20.8061 24.3746C19.9223 24.3746 19.0583 24.1125 18.3235 23.6215C17.5886 23.1304 17.0158 22.4325 16.6776 21.616C16.3394 20.7994 16.2509 19.9009 16.4233 19.0341C16.5957 18.1673 17.0213 17.371 17.6463 16.7461C18.2712 16.1211 19.0675 15.6955 19.9343 15.5231C20.8012 15.3507 21.6997 15.4392 22.5162 15.7774C23.3327 16.1156 24.0306 16.6884 24.5217 17.4232C25.0127 18.1581 25.2748 19.0221 25.2748 19.9059C25.2734 21.0906 24.8021 22.2264 23.9644 23.0642C23.1267 23.9019 21.9908 24.3732 20.8061 24.3746Z" fill="#070A0F"/>
<path d="M23.1534 18.2029L19.9936 21.3627L18.5576 19.9262C18.481 19.8522 18.3783 19.8112 18.2718 19.8122C18.1653 19.8131 18.0634 19.8558 17.9881 19.9311C17.9128 20.0065 17.8701 20.1083 17.8691 20.2149C17.8682 20.3214 17.9091 20.424 17.9831 20.5006L19.7064 22.2243C19.7826 22.3005 19.8859 22.3432 19.9936 22.3432C20.1014 22.3432 20.2047 22.3005 20.2809 22.2243L23.7278 18.7773C23.8018 18.7007 23.8428 18.5981 23.8418 18.4916C23.8409 18.3851 23.7982 18.2832 23.7229 18.2079C23.6475 18.1325 23.5457 18.0898 23.4391 18.0889C23.3326 18.088 23.23 18.1289 23.1534 18.2029Z" fill="#070A0F"/>
</g>
<defs>
<clipPath id="clip0_354_1515">
<rect width="25.9995" height="25.9995" fill="white" transform="translate(0.900253)"/>
</clipPath>
</defs>
</svg>
