<svg width="20" height="25" viewBox="0 0 20 25" fill="none" xmlns="http://www.w3.org/2000/svg">
<path fill-rule="evenodd" clip-rule="evenodd" d="M5.91289 10.4247C7.00659 11.5184 8.34476 12.0727 9.89034 12.0727C11.4356 12.0727 12.7737 11.5182 13.8676 10.4249C14.9611 9.33134 15.5156 7.99317 15.5156 6.44741C15.5156 4.90201 14.9611 3.56384 13.8676 2.47032C12.7741 1.3768 11.4361 0.822464 9.89034 0.822464C8.34494 0.822464 7.00677 1.3768 5.91307 2.47014C4.81937 3.56402 4.26503 4.90219 4.26503 6.44741C4.26503 7.99317 4.81954 9.33117 5.91289 10.4247ZM9.89034 2.1911C11.0763 2.1911 12.0606 2.59897 12.8997 3.43804C13.739 4.2773 14.147 5.26177 14.147 6.44741C14.147 7.63342 13.739 8.61789 12.8997 9.45696C12.0603 10.296 11.076 10.7041 9.89034 10.7041C8.70452 10.7041 7.72004 10.2962 6.88079 9.45696C6.04172 8.61771 5.63367 7.63342 5.63367 6.44741C5.63367 5.26177 6.04172 4.2773 6.88079 3.43804C7.72004 2.59897 8.70452 2.1911 9.89034 2.1911ZM0.236536 17.3057C0.142633 17.8299 0.0788422 18.3263 0.0473042 18.7814C0.0161209 19.2261 0.000263214 19.6903 8.58307e-05 20.1609C8.58307e-05 21.3804 0.387638 22.3677 1.15205 23.0951C1.90702 23.8133 2.90557 24.1775 4.11991 24.1775H15.3655C16.5802 24.1775 17.5788 23.8133 18.3336 23.0951C19.0978 22.3672 19.4854 21.3802 19.4854 20.1611C19.4854 19.6921 19.4697 19.2279 19.4387 18.7819C19.4071 18.3258 19.3435 17.8292 19.2494 17.3057C19.1546 16.7775 19.0326 16.2784 18.8866 15.8221C18.7355 15.3501 18.5303 14.8845 18.2767 14.4381C18.0137 13.975 17.7044 13.5718 17.3573 13.2397C16.994 12.892 16.5494 12.6128 16.0359 12.4095C15.5239 12.2067 14.9566 12.1039 14.3493 12.1039C14.1109 12.1039 13.8804 12.2017 13.4354 12.4916C13.1573 12.6728 12.8365 12.8795 12.4821 13.106C12.1767 13.3009 11.7621 13.4836 11.2507 13.6488C10.7509 13.8104 10.2438 13.8923 9.74343 13.8923C9.24273 13.8923 8.73562 13.8104 8.23616 13.6488C7.72424 13.4834 7.30978 13.3008 7.00383 13.1058C6.64604 12.8772 6.32548 12.6705 6.05143 12.4918C5.60615 12.2019 5.37558 12.1041 5.13717 12.1041C4.53009 12.1041 3.96257 12.2067 3.45046 12.4093C2.93658 12.613 2.49218 12.8922 2.12922 13.2395C1.78212 13.5714 1.47279 13.9748 1.20961 14.4381C0.955692 14.8845 0.750601 15.3503 0.599501 15.8219C0.453388 16.2782 0.331331 16.7775 0.236536 17.3057ZM4.12008 22.8089C3.2566 22.8089 2.59446 22.5782 2.09572 22.1035C1.6066 21.6381 1.3689 21.0026 1.36873 20.1611C1.3689 19.7222 1.38351 19.2903 1.41256 18.8771V18.8767C1.44071 18.4705 1.49845 18.0232 1.58362 17.5473C1.66772 17.0785 1.77517 16.6384 1.90293 16.2392C2.02516 15.8574 2.1923 15.4787 2.39953 15.1143C2.59714 14.7665 2.8245 14.4684 3.07538 14.2284C3.31005 14.0039 3.60584 13.8198 3.95419 13.6819C4.27671 13.5543 4.63896 13.4845 5.03239 13.474C5.08032 13.4994 5.16567 13.5483 5.30395 13.6383C5.5853 13.8218 5.90051 14.0249 6.26739 14.2594C6.67205 14.5174 7.19253 14.75 7.81511 14.9511C8.4507 15.1566 9.09947 15.261 9.74325 15.261C10.387 15.261 11.0356 15.1566 11.6716 14.9509C12.2936 14.7501 12.8143 14.5174 13.2184 14.2598C13.5769 14.0308 13.9012 13.8216 14.1826 13.6383C14.3208 13.5481 14.4062 13.4994 14.4541 13.474C14.8474 13.4845 15.2096 13.5543 15.532 13.6819C15.8805 13.8198 16.1763 14.0037 16.4109 14.2284C16.6618 14.4686 16.8892 14.7667 17.0868 15.1142C17.2939 15.4787 17.4608 15.8572 17.5832 16.2394C17.7108 16.638 17.8181 17.0783 17.9024 17.5475C17.9877 18.0225 18.0453 18.4696 18.0734 18.8765C18.1023 19.2914 18.1167 19.7235 18.1167 20.1611C18.1167 21.0025 17.879 21.6381 17.3899 22.1037C16.8913 22.5782 16.2292 22.8089 15.3655 22.8089H4.12008Z" fill="#070A0F"/>
</svg>
