<svg width="61" height="61" viewBox="0 0 61 61" fill="none" xmlns="http://www.w3.org/2000/svg">
<rect width="61" height="61" rx="30.5" fill="#070A0F"/>
<path fill-rule="evenodd" clip-rule="evenodd" d="M43.3313 35.7296L46.3452 38.7434C46.4443 38.8432 46.5 38.9781 46.5 39.1188C46.5 39.2595 46.4443 39.3945 46.3452 39.4942C46.2446 39.594 46.1087 39.65 45.9671 39.65C45.8255 39.65 45.6896 39.594 45.589 39.4942L42.9532 36.8584L34.6731 45.1439L35.0512 45.5166C35.151 45.6171 35.2069 45.753 35.2069 45.8947C35.2069 46.0363 35.151 46.1722 35.0512 46.2727C34.9494 46.3704 34.8142 46.4256 34.6731 46.4272C34.5319 46.4266 34.3963 46.3712 34.2951 46.2727L33.5443 45.5166C33.494 45.4684 33.454 45.4105 33.4265 45.3465C33.3991 45.2824 33.3848 45.2135 33.3845 45.1439C33.3848 45.0734 33.3991 45.0037 33.4265 44.9388C33.4539 44.8739 33.4939 44.8151 33.5443 44.7658L33.9223 44.3877L27.8946 38.3654L26.3664 39.8936C26.3145 39.9426 26.2739 40.0022 26.2472 40.0684C26.2206 40.1346 26.2085 40.2057 26.212 40.277C26.2173 40.3888 26.2226 40.5059 26.2226 40.6231C26.223 41.392 26.072 42.1534 25.7781 42.8639C25.4842 43.5743 25.0533 44.22 24.5099 44.7639C23.9664 45.3078 23.3212 45.7393 22.611 46.0339C21.9008 46.3284 21.1395 46.4801 20.3706 46.4804H20.3547C18.8012 46.4797 17.3116 45.8619 16.2137 44.763C15.1157 43.664 14.4993 42.1739 14.5 40.6204C14.5007 39.067 15.1185 37.5774 16.2175 36.4795C16.7616 35.9358 17.4075 35.5047 18.1183 35.2106C18.8291 34.9166 19.5908 34.7654 20.36 34.7658C20.4205 34.7684 20.4784 34.7697 20.5356 34.7711C20.5942 34.7724 20.6521 34.7737 20.7114 34.7764C20.7826 34.7791 20.8535 34.7668 20.9196 34.7402C20.9857 34.7135 21.0454 34.6733 21.0948 34.622L22.623 33.0938L21.8722 32.343C21.583 32.058 21.3822 31.6955 21.294 31.2991C21.2058 30.9027 21.234 30.4892 21.3752 30.1085C21.5163 29.7277 21.7645 29.3958 22.0898 29.1527C22.415 28.9096 22.8036 28.7656 23.2088 28.7381C23.112 28.3795 23.1113 28.0019 23.2066 27.643C23.3019 27.2841 23.49 26.9566 23.7519 26.6933C24.0555 26.3936 24.4441 26.1947 24.8648 26.1236C24.6821 25.7605 24.6081 25.3523 24.6516 24.9482C24.6951 24.5441 24.8543 24.161 25.1101 23.8451C25.3659 23.5292 25.7073 23.2938 26.0936 23.1671C26.4798 23.0405 26.8944 23.0279 27.2876 23.131C27.3182 22.7255 27.4648 22.3374 27.7099 22.0129C27.955 21.6884 28.2882 21.4413 28.6699 21.3009C29.0516 21.1606 29.4656 21.133 29.8625 21.2215C30.2594 21.3099 30.6225 21.5107 30.9085 21.7998L32.4154 23.3067L34.6146 21.1076C34.6645 21.0583 34.704 20.9994 34.7305 20.9344C34.7571 20.8694 34.7702 20.7997 34.769 20.7295C34.7081 19.748 34.8957 18.767 35.3145 17.8772C35.7333 16.9874 36.3697 16.2177 37.1649 15.6391C37.9601 15.0605 38.8883 14.6917 39.8638 14.567C40.8392 14.4423 41.8304 14.5656 42.7456 14.9254C42.8283 14.9581 42.9018 15.0106 42.9594 15.0784C43.017 15.1462 43.0569 15.2272 43.0757 15.3142C43.0942 15.4005 43.0907 15.4901 43.0656 15.5748C43.0405 15.6594 42.9945 15.7364 42.9319 15.7987L39.6678 19.0575L39.95 21.0384L41.9309 21.3206L45.1897 18.0565C45.2525 17.9938 45.3299 17.9478 45.415 17.9227C45.5001 17.8976 45.5901 17.8942 45.6769 17.9127C45.7636 17.9312 45.8444 17.9711 45.9118 18.0287C45.9792 18.0864 46.0312 18.16 46.0629 18.2428C46.4228 19.158 46.5461 20.1492 46.4214 21.1246C46.2967 22.1001 45.9279 23.0283 45.3493 23.8235C44.7707 24.6187 44.0009 25.2551 43.1112 25.6739C42.2214 26.0927 41.2404 26.2803 40.2589 26.2194C40.1885 26.217 40.1185 26.2295 40.0533 26.2561C39.9881 26.2827 39.9293 26.3228 39.8808 26.3738L39.1939 27.0661L39.3217 27.1939C40.0883 27.9669 40.5706 28.9766 40.6902 30.0586L41.0736 33.4772C41.1812 34.4446 41.5804 35.3565 42.2184 36.0917L42.5805 35.7296C42.629 35.6801 42.6871 35.6409 42.7511 35.6143C42.8152 35.5878 42.8839 35.5745 42.9532 35.5751C43.0234 35.5744 43.0929 35.5877 43.1578 35.6143C43.2227 35.6408 43.2817 35.68 43.3313 35.7296ZM35.7257 21.312C35.6458 21.5177 35.5229 21.7039 35.3654 21.8584L33.1662 24.0575L33.917 24.8083C34.3231 24.421 34.8627 24.2049 35.4239 24.2049C35.9851 24.2049 36.5248 24.421 36.9309 24.8083L38.4378 26.3153L39.13 25.623C39.2847 25.4658 39.471 25.3432 39.6767 25.2634C39.8823 25.1835 40.1025 25.1482 40.3228 25.1598C41.0537 25.2036 41.7849 25.0792 42.4603 24.7963C43.1356 24.5133 43.7371 24.0792 44.2184 23.5274C44.6998 22.9756 45.0482 22.3208 45.2368 21.6133C45.4255 20.9058 45.4495 20.1644 45.3068 19.4462L42.4953 22.2577C42.4369 22.3167 42.3657 22.3614 42.2871 22.3881C42.2086 22.4149 42.1249 22.4232 42.0427 22.4122L39.4069 22.0341C39.2926 22.0179 39.1866 21.965 39.105 21.8834C39.0234 21.8018 38.9705 21.6958 38.9543 21.5815L38.5762 18.9457C38.5652 18.8635 38.5735 18.7798 38.6002 18.7012C38.627 18.6227 38.6717 18.5515 38.7306 18.4931L41.5422 15.6816C40.824 15.5389 40.0826 15.5629 39.3751 15.7516C38.6676 15.9402 38.0128 16.2886 37.461 16.77C36.9092 17.2513 36.4751 17.8528 36.1921 18.5281C35.9091 19.2035 35.7848 19.9347 35.8286 20.6656C35.8406 20.8859 35.8055 21.1063 35.7257 21.312ZM29.3989 22.2511C29.1187 22.2511 28.8491 22.3582 28.6454 22.5506C28.4471 22.7513 28.3359 23.022 28.3359 23.3041C28.3359 23.5862 28.4471 23.8569 28.6454 24.0575L31.6593 27.0714L33.1662 25.5645L30.1523 22.5506C29.9486 22.3582 29.6791 22.2511 29.3989 22.2511ZM26.7631 24.132C26.4821 24.132 26.2121 24.2408 26.0096 24.4356C25.9109 24.5341 25.8326 24.6512 25.7791 24.78C25.7257 24.9088 25.6982 25.0469 25.6982 25.1864C25.6982 25.3259 25.7257 25.464 25.7791 25.5928C25.8326 25.7217 25.9109 25.8387 26.0096 25.9372L28.081 28.0086L29.4015 29.3291C29.6053 29.5215 29.8748 29.6286 30.155 29.6286C30.4352 29.6286 30.7048 29.5215 30.9085 29.3291L30.9724 29.2492C30.8725 29.0388 30.8206 28.8087 30.8206 28.5757C30.8206 28.3427 30.8725 28.1126 30.9724 27.9021L30.9085 27.8222L27.5166 24.4356C27.3141 24.2408 27.044 24.132 26.7631 24.132ZM25.2588 27.1344C24.9775 27.1344 24.7076 27.2458 24.508 27.4441C24.409 27.543 24.3305 27.6605 24.2769 27.7898C24.2233 27.9191 24.1957 28.0576 24.1957 28.1976C24.1957 28.3375 24.2233 28.4761 24.2769 28.6054C24.3305 28.7347 24.409 28.8522 24.508 28.9511L24.8808 29.3291L27.8946 32.343C28.0944 32.5428 28.3655 32.6551 28.6481 32.6551C28.9307 32.6551 29.2017 32.5428 29.4015 32.343C29.6014 32.1431 29.7136 31.8721 29.7136 31.5895C29.7136 31.3069 29.6014 31.0359 29.4015 30.836L28.6507 30.0799H28.6454L27.3302 28.7647L26.0096 27.4441C25.8101 27.2458 25.5402 27.1344 25.2588 27.1344ZM22.3899 30.4264C22.336 30.5562 22.3084 30.6955 22.3089 30.836C22.309 30.9758 22.3368 31.1141 22.3907 31.2429C22.4446 31.3718 22.5236 31.4887 22.623 31.5868L26.0096 34.9788C26.2095 35.1786 26.4805 35.2909 26.7631 35.2909C27.0457 35.2909 27.3167 35.1786 27.5166 34.9788C27.7164 34.7789 27.8286 34.5079 27.8286 34.2253C27.8286 33.9427 27.7164 33.6717 27.5166 33.4718L27.1438 33.0938L24.13 30.0799C24.0308 29.9807 23.9129 29.9023 23.783 29.8493C23.6532 29.7963 23.5141 29.7697 23.3738 29.7711C23.0928 29.7718 22.8232 29.8827 22.623 30.0799C22.5231 30.1788 22.4439 30.2966 22.3899 30.4264ZM34.2951 31.9649L28.6454 37.6146L34.6731 43.6369L41.4623 36.8425C40.6576 35.9346 40.1535 34.8 40.0193 33.5943L39.6359 30.1758C39.5382 29.3334 39.1615 28.548 38.5656 27.9447L36.1801 25.5645C35.9776 25.3697 35.7075 25.2609 35.4266 25.2609C35.1456 25.2609 34.8756 25.3697 34.6731 25.5645L32.0373 28.2003C31.9382 28.3 31.8825 28.435 31.8825 28.5757C31.8825 28.7163 31.9382 28.8513 32.0373 28.9511C32.3369 29.2502 32.7429 29.4182 33.1662 29.4182C33.5895 29.4182 33.9955 29.2502 34.2951 28.9511C34.5995 28.6613 35.0037 28.4997 35.4239 28.4997C35.8442 28.4997 36.2484 28.6613 36.5528 28.9511C36.7013 29.0992 36.8191 29.2751 36.8995 29.4688C36.9799 29.6625 37.0213 29.8702 37.0213 30.0799C37.0213 30.2897 36.9799 30.4973 36.8995 30.691C36.8191 30.8847 36.7013 31.0607 36.5528 31.2088L36.1801 31.5868C35.6809 32.0861 35.4005 32.7632 35.4005 33.4692C35.4005 34.1752 35.6809 34.8522 36.1801 35.3515L36.5528 35.7296C36.652 35.8293 36.7076 35.9643 36.7076 36.105C36.7076 36.2456 36.652 36.3806 36.5528 36.4804C36.5042 36.5309 36.4459 36.5711 36.3814 36.5986C36.3169 36.626 36.2475 36.6402 36.1774 36.6402C36.1073 36.6402 36.0379 36.626 35.9734 36.5986C35.9089 36.5711 35.8506 36.5309 35.802 36.4804L35.4239 36.1076C34.7257 35.4081 34.3336 34.4602 34.3336 33.4718C34.3336 32.4835 34.7257 31.5356 35.4239 30.836L35.802 30.458C35.8516 30.4084 35.8908 30.3494 35.9173 30.2845C35.9438 30.2196 35.9571 30.15 35.9564 30.0799C35.9571 30.0106 35.9438 29.9418 35.9172 29.8778C35.8907 29.8137 35.8515 29.7557 35.802 29.7072C35.7013 29.6098 35.5667 29.5553 35.4266 29.5553C35.2865 29.5553 35.1519 29.6098 35.0512 29.7072C34.6156 30.1399 34.0444 30.4095 33.4334 30.4706C32.8225 30.5317 32.2092 30.3806 31.6965 30.0426C31.6886 30.048 31.6832 30.0546 31.6779 30.0613C31.6726 30.0679 31.6673 30.0746 31.6593 30.0799C31.3602 30.383 30.9756 30.5874 30.557 30.6657C30.7098 30.9753 30.7842 31.3177 30.7736 31.6629C30.7631 32.008 30.6679 32.3453 30.4965 32.645C30.325 32.9447 30.0826 33.1978 29.7905 33.3819C29.4984 33.566 29.1655 33.6755 28.8211 33.7008C28.938 34.1524 28.903 34.63 28.7214 35.0597C28.5397 35.4894 28.2216 35.8474 27.8163 36.0783C27.4109 36.3091 26.9407 36.4001 26.4785 36.3371C26.0162 36.274 25.5876 36.0605 25.2588 35.7296L23.3738 33.8446L21.8456 35.3781C21.69 35.5341 21.5035 35.6559 21.2981 35.7356C21.0927 35.8154 20.873 35.8514 20.6528 35.8414C20.557 35.8361 20.4399 35.8307 20.36 35.8307C19.089 35.83 17.8697 36.3343 16.9705 37.2325C16.0713 38.1307 15.5657 39.3494 15.565 40.6204C15.5643 41.8914 16.0685 43.1107 16.9667 44.0099C17.865 44.9091 19.0836 45.4147 20.3547 45.4154H20.3706C21.6407 45.414 22.8583 44.9085 23.7559 44.0099C24.6535 43.1113 25.1577 41.8932 25.1577 40.6231C25.1577 40.5272 25.1523 40.4314 25.147 40.3355C25.1357 40.1153 25.1712 39.8952 25.251 39.6896C25.3309 39.484 25.4533 39.2977 25.6103 39.1428L33.5443 31.2088C33.644 31.1096 33.779 31.0539 33.9197 31.0539C34.0603 31.0539 34.1953 31.1096 34.2951 31.2088C34.3948 31.3093 34.4508 31.4452 34.4508 31.5868C34.4508 31.7285 34.3948 31.8644 34.2951 31.9649ZM22.915 38.0734C22.9811 38.1395 23.0286 38.2218 23.0528 38.3121L23.8483 41.2818C23.8725 41.3721 23.8725 41.4671 23.8483 41.5574C23.8241 41.6477 23.7765 41.73 23.7104 41.7961L21.5363 43.9697C21.4364 44.0696 21.301 44.1257 21.1598 44.1257C21.1134 44.1258 21.0672 44.1197 21.0224 44.1076L18.0528 43.3121C17.9625 43.2879 17.8802 43.2404 17.8141 43.1743C17.748 43.1082 17.7005 43.0259 17.6763 42.9356L16.8808 39.966C16.8567 39.8758 16.8567 39.7808 16.881 39.6906C16.9052 39.6004 16.9527 39.5182 17.0187 39.4521L19.1923 37.278C19.2584 37.2119 19.3407 37.1643 19.431 37.1401C19.5213 37.1159 19.6164 37.1159 19.7067 37.1401L22.6763 37.9356C22.7666 37.9598 22.8489 38.0074 22.915 38.0734ZM18.6252 42.359L21.0011 42.9979L22.7423 41.2647L22.1034 38.8893L19.728 38.2503L17.9889 39.9894L18.6252 42.359Z" fill="url(#paint0_linear_307_533)"/>
<defs>
<linearGradient id="paint0_linear_307_533" x1="11.5096" y1="4.78577" x2="48.1363" y2="5.44779" gradientUnits="userSpaceOnUse">
<stop stop-color="#FFD03F"/>
<stop offset="0.2" stop-color="#FCC939"/>
<stop offset="0.46" stop-color="#F5B82A"/>
<stop offset="0.77" stop-color="#EA9C12"/>
<stop offset="0.9" stop-color="#E58E06"/>
<stop offset="1" stop-color="#DF8800"/>
</linearGradient>
</defs>
</svg>
