<svg width="61" height="61" viewBox="0 0 61 61" fill="none" xmlns="http://www.w3.org/2000/svg">
<rect width="61" height="61" rx="30.5" fill="#070A0F"/>
<path fill-rule="evenodd" clip-rule="evenodd" d="M36.398 19.4336H36.3324C36.1543 19.4151 35.9908 19.3266 35.8779 19.1877C35.765 19.0487 35.7119 18.8706 35.7303 18.6925L36.2475 13.6249C36.2542 13.5348 36.2789 13.447 36.3202 13.3667C36.3614 13.2863 36.4184 13.2151 36.4876 13.1571C36.5569 13.0992 36.6371 13.0557 36.7235 13.0293C36.8099 13.0029 36.9007 12.994 36.9905 13.0033C37.0803 13.0126 37.1674 13.0399 37.2466 13.0834C37.3257 13.1269 37.3953 13.1859 37.4512 13.2568C37.5072 13.3277 37.5483 13.4091 37.5723 13.4962C37.5962 13.5833 37.6024 13.6743 37.5906 13.7638L37.0695 18.8276C37.0524 18.9938 36.9742 19.1477 36.8502 19.2596C36.7261 19.3715 36.565 19.4335 36.398 19.4336ZM35.4987 24.1306C32.083 19.1054 27.521 16.4346 25.1319 18.071C24.8688 18.2563 24.6403 18.4862 24.4565 18.7503C24.4565 18.7696 18.9257 29.9624 18.9257 29.9624L15.8381 32.0543C15.3641 32.376 14.9581 32.788 14.6434 33.2667C14.3286 33.7454 14.1113 34.2814 14.0038 34.8442C13.8963 35.4069 13.9006 35.9853 14.0167 36.5463C14.1328 37.1073 14.3582 37.6399 14.6802 38.1138L14.8191 38.3184C15.4699 39.2664 16.4683 39.9196 17.5976 40.1364C18.7269 40.3531 19.8961 40.1159 20.8516 39.4762L25.8112 46.7824C26.5407 47.6817 27.9417 48.5771 29.6708 47.5234C29.9771 47.3248 30.2384 47.0642 30.4378 46.7584C30.6373 46.4526 30.7704 46.1084 30.8286 45.748C30.8985 45.3896 30.8966 45.0208 30.8231 44.6631C30.7495 44.3053 30.6058 43.9657 30.4002 43.6639L26.0312 37.2184C26.0312 37.2184 36.3594 36.3963 36.398 36.3808C36.7205 36.3134 37.0262 36.1821 37.2973 35.9949C38.5246 35.1612 38.9646 33.4128 38.5401 31.0701C38.158 28.9126 37.0734 26.4695 35.4987 24.1306ZM15.9423 37.558L15.8033 37.3535C15.5812 37.0264 15.4257 36.6588 15.3458 36.2716C15.266 35.8844 15.2632 35.4853 15.3378 35.097C15.4124 34.7087 15.5628 34.339 15.7804 34.009C15.998 33.6789 16.2786 33.395 16.6061 33.1735L19.2731 31.3595L22.793 36.543L20.126 38.357C19.7989 38.5794 19.4312 38.7352 19.0439 38.8154C18.6565 38.8956 18.2571 38.8987 17.8686 38.8245C17.48 38.7503 17.1099 38.6003 16.7794 38.383C16.4489 38.1657 16.1644 37.8853 15.9423 37.558ZM29.2887 44.4242C29.4996 44.7381 29.5774 45.1228 29.5051 45.494C29.4327 45.8652 29.2161 46.1925 28.9027 46.4042C28.5882 46.6153 28.2029 46.6932 27.8311 46.6209C27.4593 46.5486 27.1313 46.3319 26.9189 46.0182L21.9748 38.7352L23.9625 37.3843L24.4874 37.3419L29.2887 44.4242ZM24.0705 36.0181L20.2341 30.3676L23.893 22.9071C24.2481 25.0028 25.2863 27.4923 26.9459 29.9354C28.6055 32.3785 30.5353 34.2619 32.3493 35.3658L24.0705 36.0181ZM35.4563 35.1188C33.6114 34.9991 30.6087 32.9188 28.0652 29.1712C25.5217 25.4235 24.6958 21.8766 25.2631 20.1127C25.3656 19.7817 25.5701 19.4914 25.8473 19.2835C26.1246 19.0755 26.4604 18.9605 26.807 18.9549C28.6364 18.9549 31.7511 21.0468 34.3679 24.9025C35.8422 27.0716 36.9152 29.341 37.2085 31.3248C37.7836 35.1188 35.4563 35.1188 35.4563 35.1188ZM30.6743 24.2736C30.2016 24.1808 29.715 24.1831 29.2432 24.2806C28.7713 24.378 28.3237 24.5685 27.9263 24.841C27.8531 24.8917 27.7905 24.9563 27.7423 25.0311C27.694 25.106 27.661 25.1896 27.645 25.2772C27.6291 25.3649 27.6305 25.4548 27.6493 25.5418C27.6681 25.6289 27.7039 25.7114 27.7546 25.7846C27.8053 25.8579 27.8699 25.9204 27.9447 25.9687C28.0196 26.017 28.1032 26.05 28.1908 26.066C28.2785 26.0819 28.3684 26.0804 28.4554 26.0616C28.5425 26.0428 28.625 26.0071 28.6982 25.9564C28.9499 25.7856 29.2327 25.666 29.5306 25.6045C29.8284 25.543 30.1355 25.5408 30.4342 25.5979C30.7329 25.6551 31.0175 25.7705 31.2716 25.9377C31.5257 26.1048 31.7444 26.3203 31.9152 26.572C32.086 26.8236 32.2056 27.1065 32.2671 27.4043C32.3286 27.7022 32.3308 28.0092 32.2736 28.308C32.2165 28.6067 32.101 28.8912 31.9339 29.1453C31.7668 29.3994 31.5512 29.6181 31.2996 29.7889C31.1809 29.8709 31.0916 29.9887 31.0447 30.125C30.9978 30.2614 30.9958 30.4092 31.0389 30.5468C31.082 30.6844 31.1681 30.8046 31.2844 30.8897C31.4008 30.9749 31.5413 31.0206 31.6855 31.0202C31.8231 31.0227 31.9581 30.9823 32.0715 30.9044C32.6718 30.4977 33.1379 29.922 33.4108 29.2502C33.6836 28.5785 33.751 27.8408 33.6042 27.1307C33.4575 26.4206 33.1033 25.7701 32.5866 25.2615C32.0698 24.7528 31.4137 24.409 30.7014 24.2736H30.6743ZM45.0629 18.3914C44.9637 18.2419 44.8094 18.1377 44.6337 18.1016C44.458 18.0654 44.2751 18.1002 44.125 18.1984L39.4202 21.2861C39.298 21.3668 39.2054 21.4849 39.1562 21.6228C39.107 21.7607 39.104 21.9109 39.1475 22.0506C39.191 22.1904 39.2788 22.3122 39.3976 22.3978C39.5164 22.4834 39.6598 22.528 39.8062 22.525C39.9427 22.5282 40.0771 22.4905 40.1921 22.417L44.8969 19.3293C45.0429 19.2266 45.1423 19.0703 45.1734 18.8946C45.2045 18.7189 45.1647 18.538 45.0629 18.3914ZM41.0295 25.6515L46.5024 26.6357L46.4985 26.6241C46.6688 26.6495 46.8229 26.7391 46.9294 26.8744C47.0359 27.0097 47.0867 27.1805 47.0714 27.352C47.0561 27.5235 46.9759 27.6827 46.8472 27.797C46.7185 27.9114 46.551 27.9722 46.3789 27.9672H46.2592L40.7902 26.983C40.6136 26.9513 40.4569 26.8507 40.3545 26.7034C40.2521 26.5561 40.2124 26.3742 40.2441 26.1976C40.2758 26.021 40.3764 25.8643 40.5237 25.7619C40.671 25.6594 40.8529 25.6197 41.0295 25.6515Z" fill="url(#paint0_linear_307_503)"/>
<defs>
<linearGradient id="paint0_linear_307_503" x1="10.8286" y1="2.34001" x2="48.7703" y2="2.9887" gradientUnits="userSpaceOnUse">
<stop stop-color="#FFD03F"/>
<stop offset="0.2" stop-color="#FCC939"/>
<stop offset="0.46" stop-color="#F5B82A"/>
<stop offset="0.77" stop-color="#EA9C12"/>
<stop offset="0.9" stop-color="#E58E06"/>
<stop offset="1" stop-color="#DF8800"/>
</linearGradient>
</defs>
</svg>
