<svg width="61" height="61" viewBox="0 0 61 61" fill="none" xmlns="http://www.w3.org/2000/svg">
<rect width="61" height="61" rx="30.5" fill="#070A0F"/>
<path fill-rule="evenodd" clip-rule="evenodd" d="M30.5 14C21.4019 14 14 21.4019 14 30.5C14 34.2663 15.3022 37.9498 17.6669 40.8721C17.8961 41.1554 18.3118 41.1992 18.5951 40.9699C18.8784 40.7406 18.9222 40.325 18.6929 40.0416C16.5179 37.3537 15.32 33.965 15.32 30.5C15.32 22.1297 22.1297 15.32 30.5 15.32C38.8703 15.32 45.68 22.1297 45.68 30.5C45.68 38.8703 38.8703 45.68 30.5 45.68C27.035 45.68 23.6465 44.4821 20.9585 42.3071C20.6752 42.078 20.2597 42.1217 20.0303 42.4051C19.801 42.6884 19.8449 43.1039 20.1283 43.3333C23.0504 45.6978 26.7337 47 30.5 47C39.5981 47 47 39.5981 47 30.5C47 21.4019 39.5981 14 30.5 14ZM37.216 21.2143C37.4125 20.9073 37.323 20.4991 37.016 20.3026C35.0718 19.0579 32.8187 18.4 30.5 18.4C23.828 18.4 18.4 23.828 18.4 30.5C18.4 37.172 23.828 42.5999 30.5 42.5999C37.172 42.5999 42.5999 37.172 42.5999 30.5C42.5999 27.6789 41.6081 24.9326 39.807 22.7672C39.5739 22.4869 39.1578 22.4487 38.8775 22.6819C38.5972 22.9149 38.5591 23.331 38.7922 23.6113C40.3964 25.5402 41.2799 27.9866 41.2799 30.5C41.2799 36.4441 36.4441 41.2799 30.5 41.2799C24.5558 41.2799 19.72 36.4441 19.72 30.5C19.72 24.5558 24.5558 19.72 30.5 19.72C32.5659 19.72 34.573 20.3059 36.3043 21.4143C36.6112 21.6108 37.0193 21.5214 37.216 21.2143ZM33.1402 28.52C32.7757 28.52 32.4802 28.2245 32.4802 27.86C32.4802 26.9995 31.9283 26.2659 31.1602 25.9935V29.9064C32.6646 30.213 33.8002 31.5463 33.8002 33.14C33.8002 34.7337 32.6646 36.0669 31.1602 36.3735V37.54C31.1602 37.9045 30.8647 38.2 30.5002 38.2C30.1357 38.2 29.8402 37.9045 29.8402 37.54V36.3735C28.3357 36.0669 27.2002 34.7337 27.2002 33.14C27.2002 32.7755 27.4957 32.48 27.8602 32.48C28.2247 32.48 28.5202 32.7755 28.5202 33.14C28.5202 34.0004 29.072 34.734 29.8402 35.0065V31.0935C28.3357 30.7869 27.2002 29.4537 27.2002 27.86C27.2002 26.2663 28.3357 24.933 29.8402 24.6264V23.46C29.8402 23.0955 30.1357 22.8 30.5002 22.8C30.8647 22.8 31.1602 23.0955 31.1602 23.46V24.6264C32.6646 24.933 33.8002 26.2663 33.8002 27.86C33.8002 28.2245 33.5047 28.52 33.1402 28.52ZM28.5202 27.86C28.5202 28.7204 29.072 29.454 29.8402 29.7265V25.9935C29.072 26.2659 28.5202 26.9995 28.5202 27.86ZM31.1602 35.0065C31.9283 34.734 32.4802 34.0004 32.4802 33.14C32.4802 32.2795 31.9283 31.5459 31.1602 31.2736V35.0065Z" fill="url(#paint0_linear_307_509)"/>
<defs>
<linearGradient id="paint0_linear_307_509" x1="10.9161" y1="3.94944" x2="48.6874" y2="4.63131" gradientUnits="userSpaceOnUse">
<stop stop-color="#FFD03F"/>
<stop offset="0.2" stop-color="#FCC939"/>
<stop offset="0.46" stop-color="#F5B82A"/>
<stop offset="0.77" stop-color="#EA9C12"/>
<stop offset="0.9" stop-color="#E58E06"/>
<stop offset="1" stop-color="#DF8800"/>
</linearGradient>
</defs>
</svg>
