<svg width="61" height="61" viewBox="0 0 61 61" fill="none" xmlns="http://www.w3.org/2000/svg">
<rect width="61" height="61" rx="30.5" fill="#070A0F"/>
<path fill-rule="evenodd" clip-rule="evenodd" d="M43.9165 28.7501V29.3772C44.4103 29.4787 44.854 29.7473 45.1728 30.1379C45.4916 30.5284 45.6659 31.0168 45.6665 31.5209V35.7171C45.6683 36.0388 45.5831 36.3549 45.42 36.6322C45.2569 36.9094 45.0219 37.1374 44.7399 37.2921L43.9165 45.114V47.4167C43.9165 47.5714 43.8551 47.7197 43.7457 47.8291C43.6363 47.9385 43.4879 48 43.3332 48H15.9167C15.8281 48 15.7406 47.9798 15.6609 47.9409C15.5813 47.902 15.5115 47.8455 15.457 47.7757C15.4024 47.7058 15.3645 47.6244 15.3461 47.5377C15.3277 47.451 15.3293 47.3612 15.3508 47.2752L16.5001 42.6782V41C16.5004 40.6907 16.6235 40.3942 16.8422 40.1755C17.0609 39.9568 17.3574 39.8337 17.6667 39.8334H23.5V14.7502C23.5 14.2861 23.6844 13.841 24.0126 13.5128C24.3408 13.1846 24.7859 13.0002 25.25 13.0002C25.7141 13.0002 26.1592 13.1846 26.4874 13.5128C26.8156 13.841 27 14.2861 27 14.7502V39.8334H29.3607L28.8083 34.5834H28.75C28.5953 34.5834 28.4469 34.522 28.3375 34.4126C28.2281 34.3032 28.1666 34.1548 28.1666 34.0001V31.6668C28.1666 31.5121 28.2281 31.3637 28.3375 31.2543C28.4469 31.1449 28.5953 31.0834 28.75 31.0834H31.0833V28.7501C31.0833 27.0483 31.7593 25.4162 32.9627 24.2129C34.166 23.0095 35.7981 22.3335 37.4999 22.3335C39.2017 22.3335 40.8338 23.0095 42.0371 24.2129C43.2405 25.4162 43.9165 27.0483 43.9165 28.7501ZM32.6496 26.7411C32.3857 27.378 32.2499 28.0607 32.2499 28.7501V31.0834H35.2103C35.3118 30.5897 35.5805 30.146 35.971 29.8272C36.3615 29.5084 36.85 29.334 37.3541 29.3335H42.7499V28.7501C42.7499 28.0607 42.6141 27.378 42.3502 26.7411C42.0864 26.1041 41.6997 25.5254 41.2122 25.0378C40.7247 24.5503 40.1459 24.1636 39.509 23.8998C38.872 23.636 38.1893 23.5002 37.4999 23.5002C36.8105 23.5002 36.1278 23.636 35.4908 23.8998C34.8539 24.1636 34.2751 24.5503 33.7876 25.0378C33.3001 25.5254 32.9134 26.1041 32.6496 26.7411ZM35.1666 33.4168V32.2501H29.3333V33.4168H35.1666ZM35.1666 34.5834H29.9812L30.5336 39.8334H32.8333C33.1426 39.8337 33.4391 39.9568 33.6578 40.1755C33.8765 40.3942 33.9996 40.6907 33.9999 41V42.6782L34.4554 44.5H42.8082L43.549 37.4603C43.2514 37.3974 42.9755 37.2573 42.7493 37.0539C42.4287 37.3412 42.0133 37.5001 41.5828 37.5C41.1523 37.4999 40.737 37.3408 40.4166 37.0533C40.096 37.3409 39.6805 37.5 39.2499 37.5C38.8192 37.5 38.4038 37.3409 38.0832 37.0533C37.7691 37.334 37.3646 37.4925 36.9434 37.5C36.7138 37.5031 36.4858 37.4601 36.273 37.3737C36.0603 37.2873 35.8669 37.1592 35.7044 36.9969C35.535 36.8296 35.4002 36.6306 35.3079 36.4111C35.2156 36.1916 35.1676 35.9561 35.1666 35.718V34.5834ZM24.8375 14.3378C24.7281 14.4472 24.6667 14.5955 24.6667 14.7502V39.8334H25.8333V14.7502C25.8333 14.5955 25.7719 14.4472 25.6625 14.3378C25.5531 14.2284 25.4047 14.1669 25.25 14.1669C25.0953 14.1669 24.9469 14.2284 24.8375 14.3378ZM32.8333 42.1667V41H17.6667V42.1667H32.8333ZM19.8721 43.3334L18.9971 46.8333H20.1279L21.0029 43.3334H19.8721ZM18.6696 43.3334H17.5388L16.6638 46.8333H17.7946L18.6696 43.3334ZM23.4226 43.3334H22.2055L21.3305 46.8333H22.9851L23.4226 43.3334ZM24.5983 43.3334L24.1608 46.8333H26.3392L25.9017 43.3334H24.5983ZM27.0774 43.3334L27.5149 46.8333H29.1695L28.2945 43.3334H27.0774ZM29.4971 43.3334L30.3721 46.8333H31.5028L30.6279 43.3334H29.4971ZM31.8304 43.3334L32.7054 46.8333H33.8362L32.9612 43.3334H31.8304ZM35.0387 46.8333H42.7499V45.6667H34.747L35.0387 46.8333ZM44.4999 35.7171V34.0001L44.5001 31.5209C44.4999 31.2503 44.3922 30.9908 44.2008 30.7994C44.0095 30.608 43.75 30.5004 43.4793 30.5001H37.3544C37.0837 30.5004 36.8242 30.608 36.6329 30.7994C36.4415 30.9908 36.3338 31.2503 36.3335 31.5209V35.7181C36.3341 35.8015 36.3512 35.884 36.3837 35.9608C36.4162 36.0376 36.4636 36.1072 36.5231 36.1657C36.6273 36.2716 36.7692 36.3319 36.9177 36.3334H36.9258C37.0789 36.3311 37.225 36.2687 37.3325 36.1595C37.4399 36.0503 37.5001 35.9033 37.4999 35.7501V33.4168H38.6666V35.7501C38.6666 35.9048 38.728 36.0532 38.8374 36.1626C38.9468 36.2719 39.0952 36.3334 39.2499 36.3334C39.4046 36.3334 39.553 36.2719 39.6624 36.1626C39.7718 36.0532 39.8332 35.9048 39.8332 35.7501V33.4168H40.9999V35.7501C40.9999 35.9048 41.0613 36.0532 41.1707 36.1626C41.2801 36.2719 41.4285 36.3334 41.5832 36.3334C41.7379 36.3334 41.8863 36.2719 41.9957 36.1626C42.1051 36.0532 42.1665 35.9048 42.1665 35.7501V33.4168H43.3332V35.7501C43.3332 35.8291 43.3493 35.9074 43.3804 35.98C43.4116 36.0527 43.4572 36.1183 43.5145 36.1727C43.5718 36.2272 43.6395 36.2695 43.7137 36.297C43.7878 36.3245 43.8667 36.3366 43.9457 36.3327C44.0988 36.3193 44.2412 36.2483 44.344 36.1341C44.4469 36.0198 44.5026 35.8708 44.4999 35.7171ZM40.4165 40.4167H41.5831V43.3334H40.4165V40.4167ZM41.5831 38.0833H40.4165V39.25H41.5831V38.0833ZM19.0757 32.1399C18.9763 32.0683 18.9021 31.9673 18.8633 31.8512C18.7098 31.3943 18.4526 30.9792 18.1117 30.6384C17.7709 30.2976 17.3558 30.0404 16.8989 29.8869C16.7827 29.8482 16.6817 29.7739 16.6101 29.6746C16.5384 29.5752 16.4999 29.4559 16.4999 29.3334C16.4999 29.211 16.5384 29.0916 16.6101 28.9923C16.6817 28.893 16.7827 28.8187 16.8989 28.78C17.3558 28.6265 17.7709 28.3693 18.1117 28.0284C18.4526 27.6876 18.7098 27.2725 18.8633 26.8156C18.9021 26.6995 18.9763 26.5985 19.0757 26.5269C19.175 26.4554 19.2943 26.4169 19.4167 26.4169C19.5391 26.4169 19.6584 26.4554 19.7577 26.5269C19.857 26.5985 19.9313 26.6995 19.97 26.8156C20.1236 27.2725 20.3808 27.6876 20.7216 28.0284C21.0625 28.3693 21.4776 28.6265 21.9345 28.78C22.0507 28.8187 22.1517 28.893 22.2233 28.9923C22.2949 29.0916 22.3335 29.211 22.3335 29.3334C22.3335 29.4559 22.2949 29.5752 22.2233 29.6746C22.1517 29.7739 22.0507 29.8482 21.9345 29.8869C21.4776 30.0404 21.0625 30.2976 20.7216 30.6384C20.3808 30.9792 20.1236 31.3943 19.97 31.8512C19.9313 31.9673 19.857 32.0683 19.7577 32.1399C19.6584 32.2115 19.5391 32.25 19.4167 32.25C19.2943 32.25 19.175 32.2115 19.0757 32.1399ZM20.469 29.3334C20.06 29.0462 19.7039 28.6901 19.4167 28.281C19.1295 28.6901 18.7734 29.0462 18.3644 29.3334C18.7734 29.6207 19.1295 29.9767 19.4167 30.3858C19.7039 29.9767 20.06 29.6207 20.469 29.3334ZM47.601 21.7802C47.1441 21.6267 46.729 21.3694 46.3882 21.0286C46.0473 20.6878 45.7901 20.2727 45.6366 19.8158C45.5979 19.6997 45.5236 19.5987 45.4243 19.5271C45.3249 19.4556 45.2056 19.417 45.0832 19.417C44.9608 19.417 44.8415 19.4556 44.7422 19.5271C44.6429 19.5987 44.5686 19.6997 44.5299 19.8158C44.3764 20.2727 44.1191 20.6878 43.7783 21.0286C43.4375 21.3694 43.0223 21.6267 42.5654 21.7802C42.4493 21.8189 42.3482 21.8931 42.2766 21.9925C42.205 22.0918 42.1664 22.2111 42.1664 22.3336C42.1664 22.456 42.205 22.5754 42.2766 22.6747C42.3482 22.7741 42.4493 22.8483 42.5654 22.887C43.0223 23.0405 43.4375 23.2978 43.7783 23.6386C44.1191 23.9794 44.3764 24.3945 44.5299 24.8514C44.5686 24.9675 44.6429 25.0685 44.7422 25.1401C44.8415 25.2116 44.9608 25.2502 45.0832 25.2502C45.2056 25.2502 45.3249 25.2116 45.4243 25.1401C45.5236 25.0685 45.5979 24.9675 45.6366 24.8514C45.7901 24.3945 46.0473 23.9794 46.3882 23.6386C46.729 23.2978 47.1441 23.0405 47.601 22.887C47.7172 22.8483 47.8182 22.7741 47.8899 22.6747C47.9615 22.5754 48 22.456 48 22.3336C48 22.2111 47.9615 22.0918 47.8899 21.9925C47.8182 21.8931 47.7172 21.8189 47.601 21.7802ZM45.0832 23.386C44.796 22.9769 44.4399 22.6208 44.0309 22.3336C44.4399 22.0464 44.796 21.6903 45.0832 21.2812C45.3704 21.6903 45.7265 22.0464 46.1355 22.3336C45.7265 22.6208 45.3704 22.9769 45.0832 23.386ZM16.2578 39.14C16.1585 39.2116 16.0392 39.2501 15.9168 39.2501C15.7944 39.2501 15.675 39.2116 15.5757 39.14C15.4764 39.0684 15.4021 38.9674 15.3634 38.8513C15.2099 38.3944 14.9527 37.9792 14.6118 37.6384C14.271 37.2976 13.8559 37.0404 13.399 36.8869C13.2828 36.8482 13.1818 36.7739 13.1101 36.6746C13.0385 36.5753 13 36.4559 13 36.3335C13 36.211 13.0385 36.0917 13.1101 35.9923C13.1818 35.893 13.2828 35.8187 13.399 35.78C13.8559 35.6265 14.271 35.3693 14.6118 35.0285C14.9527 34.6877 15.2099 34.2726 15.3634 33.8157C15.4021 33.6995 15.4764 33.5986 15.5757 33.527C15.6751 33.4554 15.7944 33.4169 15.9168 33.4169C16.0392 33.4169 16.1585 33.4554 16.2578 33.527C16.3571 33.5986 16.4314 33.6995 16.4701 33.8157C16.6236 34.2726 16.8809 34.6877 17.2217 35.0285C17.5625 35.3693 17.9777 35.6265 18.4346 35.78C18.5507 35.8187 18.6518 35.893 18.7234 35.9923C18.795 36.0917 18.8335 36.211 18.8335 36.3335C18.8335 36.4559 18.795 36.5753 18.7234 36.6746C18.6518 36.7739 18.5507 36.8482 18.4346 36.8869C17.9777 37.0404 17.5625 37.2976 17.2217 37.6384C16.8809 37.9792 16.6236 38.3944 16.4701 38.8513C16.4314 38.9674 16.3571 39.0684 16.2578 39.14ZM16.9691 36.3335C16.56 36.0462 16.204 35.6901 15.9168 35.2811C15.6296 35.6901 15.2735 36.0462 14.8644 36.3335C15.2735 36.6207 15.6296 36.9768 15.9168 37.3859C16.204 36.9768 16.56 36.6207 16.9691 36.3335Z" fill="url(#paint0_linear_307_527)"/>
<defs>
<linearGradient id="paint0_linear_307_527" x1="9.72925" y1="2.34064" x2="49.7897" y2="3.06384" gradientUnits="userSpaceOnUse">
<stop stop-color="#FFD03F"/>
<stop offset="0.2" stop-color="#FCC939"/>
<stop offset="0.46" stop-color="#F5B82A"/>
<stop offset="0.77" stop-color="#EA9C12"/>
<stop offset="0.9" stop-color="#E58E06"/>
<stop offset="1" stop-color="#DF8800"/>
</linearGradient>
</defs>
</svg>
