<svg width="29" height="29" viewBox="0 0 29 29" fill="none" xmlns="http://www.w3.org/2000/svg">
<rect width="29" height="29" rx="14.5" fill="#D9D9D9"/>
<g clip-path="url(#clip0_569_813)">
<path d="M17.9419 15.9423L17.9363 15.9892C16.5619 15.3042 16.4182 15.213 16.2407 15.4792C16.1175 15.6636 15.7588 16.0817 15.6507 16.2055C15.5413 16.3273 15.4325 16.3367 15.2469 16.2523C15.0594 16.1586 14.4575 15.9617 13.745 15.3242C13.19 14.8273 12.8175 14.218 12.7075 14.0305C12.5244 13.7142 12.9075 13.6692 13.2563 13.0092C13.3188 12.878 13.2869 12.7748 13.2406 12.6817C13.1938 12.588 12.8206 11.6692 12.6644 11.303C12.5144 10.938 12.36 10.9842 12.2444 10.9842C11.8844 10.953 11.6213 10.958 11.3894 11.1992C10.3806 12.308 10.635 13.4517 11.4982 14.668C13.1944 16.888 14.0982 17.2967 15.7507 17.8642C16.1969 18.0061 16.6038 17.9861 16.9257 17.9398C17.2844 17.883 18.03 17.4892 18.1856 17.0486C18.345 16.608 18.345 16.2423 18.2982 16.158C18.2519 16.0736 18.1294 16.0267 17.9419 15.9423Z" fill="black"/>
<path d="M19.825 9.1559C15.0194 4.51027 7.06625 7.87964 7.06312 14.4334C7.06312 15.7434 7.40625 17.0209 8.06 18.149L7 22.0003L10.9594 20.9678C15.9 23.6365 21.9975 20.0928 22 14.4371C22 12.4521 21.225 10.584 19.8156 9.18027L19.825 9.1559ZM20.7513 14.4165C20.7475 19.1871 15.5106 22.1665 11.3687 19.7315L11.1438 19.5978L8.8 20.2071L9.42812 17.929L9.27875 17.6946C6.70125 13.5915 9.6625 8.22902 14.545 8.22902C16.2037 8.22902 17.7606 8.8759 18.9331 10.0478C20.105 11.2096 20.7513 12.7665 20.7513 14.4165Z" fill="black"/>
</g>
<defs>
<clipPath id="clip0_569_813">
<rect width="15" height="15" fill="white" transform="translate(7 7)"/>
</clipPath>
</defs>
</svg>
