<svg width="29" height="29" viewBox="0 0 29 29" fill="none" xmlns="http://www.w3.org/2000/svg">
<rect width="29" height="29" rx="14.5" fill="#D9D9D9"/>
<path fill-rule="evenodd" clip-rule="evenodd" d="M12.4279 14.9888L7.83624 19.5804C7.97367 19.6461 8.12637 19.6812 8.28212 19.6812H20.7163C20.8721 19.6812 21.0248 19.6461 21.1622 19.5804L16.5721 14.9888L15.7216 15.8393C15.3979 16.163 14.9581 16.3447 14.5 16.3447C14.0419 16.3447 13.6021 16.163 13.2784 15.8393L12.4279 14.9888Z" fill="black"/>
<path fill-rule="evenodd" clip-rule="evenodd" d="M21.6524 9.9082C21.718 10.0456 21.7532 10.1983 21.7532 10.3541V18.6441C21.7532 18.7998 21.718 18.9525 21.6524 19.09L17.0607 14.4998L21.6524 9.9082Z" fill="black"/>
<path fill-rule="evenodd" clip-rule="evenodd" d="M7.34761 9.9082L11.9392 14.4998L7.34761 19.0915C7.28195 18.9541 7.24683 18.8014 7.24683 18.6456C7.24683 16.5216 7.24683 12.4796 7.24683 10.3556C7.24683 10.1983 7.28195 10.0472 7.34761 9.9082Z" fill="black"/>
<path fill-rule="evenodd" clip-rule="evenodd" d="M21.1638 9.41963C21.0263 9.35397 20.8736 9.31885 20.7179 9.31885C17.8273 9.31885 11.1742 9.31885 8.28365 9.31885C8.1279 9.31885 7.9752 9.35397 7.83777 9.41963L13.767 15.3504C13.961 15.5444 14.2251 15.6543 14.5 15.6543C14.7749 15.6543 15.039 15.5459 15.2329 15.3504L21.1638 9.41963Z" fill="black"/>
</svg>
