<svg width="29" height="29" viewBox="0 0 29 29" fill="none" xmlns="http://www.w3.org/2000/svg">
<rect width="29" height="29" rx="14.5" fill="#D9D9D9"/>
<path d="M14.4995 6C11.1047 6 8.34277 8.7619 8.34277 12.1567C8.34277 16.3698 13.8525 22.5548 14.087 22.8161C14.3074 23.0615 14.6921 23.0611 14.912 22.8161C15.1466 22.5548 20.6563 16.3698 20.6563 12.1567C20.6562 8.7619 17.8944 6 14.4995 6ZM14.4995 15.2543C12.7915 15.2543 11.4019 13.8648 11.4019 12.1567C11.4019 10.4487 12.7915 9.05914 14.4995 9.05914C16.2075 9.05914 17.5971 10.4487 17.5971 12.1568C17.5971 13.8648 16.2075 15.2543 14.4995 15.2543Z" fill="black"/>
</svg>
