<svg width="31" height="32" viewBox="0 0 31 32" fill="none" xmlns="http://www.w3.org/2000/svg">
<g clip-path="url(#clip0_354_1529)">
<path d="M26.8647 14.8345C27.7608 14.2049 28.3541 13.1574 28.3541 11.9768C28.3541 10.0453 26.7921 8.48323 24.8606 8.48323C22.9292 8.48323 21.3671 10.0453 21.3671 11.9768C21.3671 13.1574 21.9544 14.2049 22.8565 14.8345C22.0876 15.1009 21.3853 15.5127 20.7919 16.0455C19.9745 15.3492 19.0118 14.8164 17.9583 14.5015C19.2359 13.7265 20.0956 12.3158 20.0956 10.7113C20.0956 8.26527 18.1158 6.2854 15.6697 6.2854C13.2236 6.2854 11.2438 8.27132 11.2438 10.7113C11.2438 12.3158 12.0975 13.7265 13.381 14.5015C12.3396 14.8164 11.3891 15.3431 10.5777 16.0273C9.98439 15.5066 9.29416 15.1009 8.53733 14.8406C9.43342 14.2109 10.0268 13.1635 10.0268 11.9828C10.0268 10.0514 8.46468 8.48929 6.53325 8.48929C4.60182 8.48929 3.03972 10.0514 3.03972 11.9828C3.03972 13.1635 3.62702 14.2109 4.52916 14.8406C2.12547 15.6701 0.399902 17.9527 0.399902 20.6349V21.0345C0.399902 21.0466 0.412012 21.0587 0.424121 21.0587H7.82894C7.78656 21.3917 7.76234 21.7368 7.76234 22.0819V22.4937C7.76234 24.2737 9.20334 25.7147 10.9834 25.7147H20.3681C22.1481 25.7147 23.5892 24.2737 23.5892 22.4937V22.0819C23.5892 21.7368 23.5649 21.3917 23.5226 21.0587H30.9758C30.9879 21.0587 31 21.0466 31 21.0345V20.6349C30.9879 17.9466 29.2684 15.664 26.8647 14.8345ZM22.3358 11.9707C22.3358 10.5781 23.4681 9.44592 24.8606 9.44592C26.2532 9.44592 27.3854 10.5781 27.3854 11.9707C27.3854 13.3451 26.2774 14.4652 24.9091 14.4955C24.8909 14.4955 24.8788 14.4955 24.8606 14.4955C24.8425 14.4955 24.8304 14.4955 24.8122 14.4955C23.4378 14.4713 22.3358 13.3512 22.3358 11.9707ZM12.2004 10.7113C12.2004 8.80413 13.7504 7.25414 15.6576 7.25414C17.5648 7.25414 19.1148 8.80413 19.1148 10.7113C19.1148 12.5519 17.6677 14.0596 15.8574 14.1625C15.7908 14.1625 15.7242 14.1625 15.6576 14.1625C15.591 14.1625 15.5244 14.1625 15.4578 14.1625C13.6474 14.0596 12.2004 12.5519 12.2004 10.7113ZM3.9903 11.9707C3.9903 10.5781 5.12252 9.44592 6.51508 9.44592C7.90765 9.44592 9.03987 10.5781 9.03987 11.9707C9.03987 13.3451 7.93187 14.4652 6.56352 14.4955C6.54536 14.4955 6.53325 14.4955 6.51508 14.4955C6.49692 14.4955 6.48481 14.4955 6.46665 14.4955C5.0983 14.4713 3.9903 13.3512 3.9903 11.9707ZM7.99847 20.0839H1.38075C1.65321 17.5046 3.83288 15.4824 6.47876 15.4642C6.49086 15.4642 6.50297 15.4642 6.51508 15.4642C6.52719 15.4642 6.5393 15.4642 6.55141 15.4642C7.81077 15.4703 8.96116 15.9365 9.85119 16.6933C8.97932 17.6378 8.33147 18.8003 7.99847 20.0839ZM22.6083 22.4937C22.6083 23.7349 21.5972 24.746 20.356 24.746H10.9713C9.73009 24.746 8.71897 23.7349 8.71897 22.4937V22.0819C8.71897 18.322 11.7221 15.2463 15.4578 15.1373C15.5244 15.1433 15.597 15.1433 15.6636 15.1433C15.7302 15.1433 15.8029 15.1433 15.8695 15.1373C19.6052 15.2463 22.6083 18.322 22.6083 22.0819V22.4937ZM23.3288 20.0839C22.9958 18.8064 22.3601 17.6621 21.4942 16.7175C22.3903 15.9425 23.5528 15.4763 24.8243 15.4642C24.8364 15.4642 24.8485 15.4642 24.8606 15.4642C24.8727 15.4642 24.8848 15.4642 24.897 15.4642C27.5428 15.4824 29.7225 17.5046 29.995 20.0839H23.3288Z" fill="#070A0F"/>
</g>
<defs>
<clipPath id="clip0_354_1529">
<rect width="30.6001" height="30.6001" fill="white" transform="translate(0.399902 0.699707)"/>
</clipPath>
</defs>
</svg>
