<svg width="26" height="19" viewBox="0 0 26 19" fill="none" xmlns="http://www.w3.org/2000/svg">
<path d="M19.5 1.43754C19.5 0.727483 18.9179 0.151825 18.2 0.151825H1.3C0.582054 0.151825 0 0.727483 0 1.43754C0 2.14759 0.582054 2.72325 1.3 2.72325H18.2C18.9179 2.72325 19.5 2.14754 19.5 1.43754ZM1.3 7.86611H24.7C25.4179 7.86611 26 8.44182 26 9.15182C26 9.86188 25.4179 10.4375 24.7 10.4375H1.3C0.582054 10.4375 0 9.86188 0 9.15182C0 8.44182 0.582054 7.86611 1.3 7.86611ZM1.3 15.5804H13C13.7179 15.5804 14.3 16.1561 14.3 16.8661C14.3 17.5761 13.7179 18.1518 13 18.1518H1.3C0.582054 18.1518 0 17.5761 0 16.8661C0 16.1561 0.582054 15.5804 1.3 15.5804Z" fill="#070A0F"/>
</svg>
