<svg width="53" height="53" viewBox="0 0 53 53" fill="none" xmlns="http://www.w3.org/2000/svg">
<rect x="1.45964" y="0.669355" width="50.871" height="50.871" rx="25.4355" stroke="white" stroke-width="1.33871"/>
<path fill-rule="evenodd" clip-rule="evenodd" d="M22.2097 16.7339C19.6219 16.7339 17.5242 18.8316 17.5242 21.4194V30.7903C17.5242 33.3781 19.6219 35.4758 22.2097 35.4758H31.5806C34.1684 35.4758 36.2661 33.3781 36.2661 30.7903V21.4194C36.2661 18.8316 34.1684 16.7339 31.5806 16.7339H22.2097ZM26.8951 22.6972C25.0132 22.6972 23.4875 24.2229 23.4875 26.1049C23.4875 27.9868 25.0132 29.5125 26.8951 29.5125C28.7771 29.5125 30.3028 27.9868 30.3028 26.1049C30.3028 24.2229 28.7771 22.6972 26.8951 22.6972ZM21.7837 26.1049C21.7837 23.2819 24.0722 20.9934 26.8951 20.9934C29.7181 20.9934 32.0066 23.2819 32.0066 26.1049C32.0066 28.9278 29.7181 31.2163 26.8951 31.2163C24.0722 31.2163 21.7837 28.9278 21.7837 26.1049ZM32.0066 19.2896C31.0656 19.2896 30.3028 20.0524 30.3028 20.9934C30.3028 21.9344 31.0656 22.6972 32.0066 22.6972C32.9476 22.6972 33.7104 21.9344 33.7104 20.9934C33.7104 20.0524 32.9476 19.2896 32.0066 19.2896Z" fill="white"/>
</svg>
