<svg width="53" height="53" viewBox="0 0 53 53" fill="none" xmlns="http://www.w3.org/2000/svg">
<rect x="0.862958" y="0.669355" width="50.871" height="50.871" rx="25.4355" stroke="white" stroke-width="1.33871"/>
<path fill-rule="evenodd" clip-rule="evenodd" d="M16.9291 18.9841C16.9291 17.7427 17.9363 16.7355 19.1777 16.7355C20.4191 16.7355 21.4263 17.7427 21.4263 18.9841C21.4263 20.2255 20.4191 21.2561 19.1777 21.2561C17.9363 21.2561 16.9291 20.2255 16.9291 18.9841ZM35.6675 35.4506V28.6111C35.6675 25.2382 34.9414 22.6616 31.0064 22.6616C29.1091 22.6616 27.8442 23.6922 27.3289 24.676H27.2821V22.9661H23.5578V35.474H27.446V29.2669C27.446 27.6273 27.7505 26.058 29.7649 26.058C31.7559 26.058 31.7793 27.9084 31.7793 29.3606V35.4506H35.6675ZM17.2335 22.9662H21.1217V35.4741H17.2335V22.9662Z" fill="white"/>
</svg>
