<svg width="62" height="62" viewBox="0 0 62 62" fill="none" xmlns="http://www.w3.org/2000/svg">
<rect width="62" height="62" rx="5" fill="url(#paint0_linear_339_885)"/>
<path fill-rule="evenodd" clip-rule="evenodd" d="M33.5359 40.0963C32.9917 40.9867 32.0441 41.5183 31.0009 41.5183C29.9578 41.5183 29.0101 40.9867 28.4659 40.0963C24.6527 33.8575 20.1071 25.6352 20.1071 21.8937C20.1071 15.8869 24.994 11 31.0009 11C37.0078 11 41.8946 15.8869 41.8946 21.8937C41.8946 25.6352 37.3492 33.8575 33.5359 40.0963ZM31.0009 16.7672C28.5865 16.7672 26.6222 18.7314 26.6222 21.1457C26.6222 23.5602 28.5865 25.5243 31.0009 25.5243C33.4153 25.5243 35.3796 23.5601 35.3796 21.1457C35.3796 18.7314 33.4153 16.7672 31.0009 16.7672ZM22.1532 45.1511C24.5321 45.8232 27.6742 46.1933 31.0007 46.1933C34.3272 46.1933 37.4693 45.8232 39.8482 45.1511C42.7586 44.329 44.2343 43.1389 44.2343 41.614C44.2343 40.0891 42.7586 38.8991 39.8482 38.077C39.2021 37.8945 38.4995 37.7344 37.7524 37.5978C37.3467 38.2988 36.9216 39.0203 36.4772 39.7625C37.3041 39.8866 38.0804 40.0387 38.7854 40.2183C40.9273 40.7639 41.7098 41.378 41.8706 41.6141C41.7097 41.8503 40.9273 42.4644 38.7855 43.0099C36.7582 43.5262 34.1499 43.8207 31.4028 43.8471C31.2698 43.8569 31.1357 43.8625 31.0007 43.8625C30.8656 43.8625 30.7316 43.8569 30.5985 43.8471C27.8514 43.8207 25.2431 43.5263 23.2159 43.0099C21.074 42.4644 20.2916 41.8502 20.1307 41.6141C20.2916 41.378 21.0741 40.7639 23.2159 40.2183C23.9209 40.0388 24.6973 39.8866 25.5242 39.7625C25.0798 39.0203 24.6547 38.2987 24.249 37.5978C23.502 37.7345 22.7992 37.8945 22.1532 38.077C19.2428 38.8991 17.7671 40.0892 17.7671 41.614C17.7671 43.1389 19.2428 44.3289 22.1532 45.1511ZM47.5882 39.0447C47.0208 38.733 46.3084 38.9403 45.9969 39.5075C45.6852 40.0748 45.8924 40.7873 46.4597 41.0988C47.8556 41.8657 48.6562 42.7159 48.6562 43.4313C48.6562 44.3064 47.4164 45.6627 43.9365 46.8449C40.4986 48.0131 35.9043 48.6562 31 48.6562C26.0957 48.6562 21.5014 48.0131 18.0635 46.8449C14.5836 45.6627 13.3438 44.3064 13.3438 43.4313C13.3438 42.7159 14.1444 41.8657 15.5403 41.0988C16.1076 40.7872 16.3148 40.0747 16.0031 39.5074C15.6915 38.9402 14.9792 38.733 14.4118 39.0446C12.8554 39.8997 11 41.3548 11 43.4313C11 45.023 12.0947 47.2924 17.3095 49.0641C20.9839 50.3125 25.8459 51 31 51C36.1541 51 41.0161 50.3125 44.6905 49.0641C49.9053 47.2924 51 45.023 51 43.4313C51 41.3548 49.1446 39.8997 47.5882 39.0447Z" fill="#070A0F"/>
<defs>
<linearGradient id="paint0_linear_339_885" x1="-5.7939" y1="-18.8829" x2="65.1703" y2="-17.6018" gradientUnits="userSpaceOnUse">
<stop stop-color="#FFD03F"/>
<stop offset="0.2" stop-color="#FCC939"/>
<stop offset="0.46" stop-color="#F5B82A"/>
<stop offset="0.77" stop-color="#EA9C12"/>
<stop offset="0.9" stop-color="#E58E06"/>
<stop offset="1" stop-color="#DF8800"/>
</linearGradient>
</defs>
</svg>
