<svg width="23" height="21" viewBox="0 0 23 21" fill="none" xmlns="http://www.w3.org/2000/svg">
<g clip-path="url(#clip0_354_1117)">
<g clip-path="url(#clip1_354_1117)">
<path d="M14.2767 8.63391C14.2767 7.45525 13.3178 6.49634 12.1391 6.49634H9.22427C9.00965 6.49634 8.83562 6.67038 8.83562 6.88499V10.3828C8.83562 10.5974 9.00965 10.7715 9.22427 10.7715H12.1391C13.3178 10.7715 14.2767 9.81257 14.2767 8.63391ZM9.61292 7.27364H12.1391C12.8892 7.27364 13.4994 7.88386 13.4994 8.63391C13.4994 9.38397 12.8892 9.99419 12.1391 9.99419H9.61292V7.27364Z" fill="black"/>
<path d="M16.6086 8.63378C16.6086 6.16931 14.6036 4.16431 12.1391 4.16431H6.89236C6.67775 4.16431 6.50371 4.33834 6.50371 4.55296V16.2125C6.50371 16.4271 6.67775 16.6011 6.89236 16.6011H9.22426C9.43887 16.6011 9.61291 16.4271 9.61291 16.2125V13.1033H12.1391C14.6036 13.1033 16.6086 11.0982 16.6086 8.63378ZM9.22426 12.326C9.00964 12.326 8.83561 12.5 8.83561 12.7146V15.8238H7.28101V4.94161H12.1391C14.175 4.94161 15.8313 6.59792 15.8313 8.63378C15.8313 10.6696 14.175 12.326 12.1391 12.326H9.22426Z" fill="black"/>
<path d="M11.5562 20.3322C11.7708 20.3322 11.9448 20.1582 11.9448 19.9436C11.9448 19.7289 11.7708 19.5549 11.5562 19.5549C11.3415 19.5549 11.1675 19.7289 11.1675 19.9436C11.1675 20.1582 11.3415 20.3322 11.5562 20.3322Z" fill="black"/>
<path d="M19.951 0.43335H3.16133C2.30413 0.43335 1.60674 1.13074 1.60674 1.98795V18.7776C1.60674 19.6348 2.30413 20.3322 3.16133 20.3322H9.80725C10.0219 20.3322 10.1959 20.1582 10.1959 19.9436C10.1959 19.729 10.0219 19.5549 9.80725 19.5549H3.16133C2.73273 19.5549 2.38404 19.2062 2.38404 18.7776V1.98795C2.38404 1.55935 2.73273 1.21065 3.16133 1.21065H19.951C20.3796 1.21065 20.7283 1.55935 20.7283 1.98795V18.7776C20.7283 19.2062 20.3796 19.5549 19.951 19.5549H13.3051C13.0905 19.5549 12.9164 19.729 12.9164 19.9436C12.9164 20.1582 13.0905 20.3322 13.3051 20.3322H19.951C20.8082 20.3322 21.5056 19.6348 21.5056 18.7776V1.98795C21.5056 1.13074 20.8082 0.43335 19.951 0.43335Z" fill="black"/>
</g>
</g>
<defs>
<clipPath id="clip0_354_1117">
<rect width="21.6292" height="19.8989" fill="white" transform="translate(0.741577 0.43335)"/>
</clipPath>
<clipPath id="clip1_354_1117">
<rect width="19.8989" height="19.8989" fill="white" transform="translate(1.60674 0.43335)"/>
</clipPath>
</defs>
</svg>
