<svg width="115" height="115" viewBox="0 0 115 115" fill="none" xmlns="http://www.w3.org/2000/svg">
<circle cx="57.5" cy="57.5" r="57.5" fill="url(#paint0_linear_281_4758)" fill-opacity="0.3"/>
<circle cx="57.5" cy="57.5" r="43.8366" fill="url(#paint1_linear_281_4758)" fill-opacity="0.5"/>
<circle cx="58.4538" cy="58.4537" r="16.3482" fill="white"/>
<path d="M57.9729 29.604C42.3054 29.604 29.604 42.3051 29.604 57.9728C29.604 73.6406 42.3054 86.3417 57.9729 86.3417C73.6404 86.3417 86.3418 73.6406 86.3418 57.9728C86.3418 42.3051 73.6404 29.604 57.9729 29.604ZM67.7779 59.4766L53.5934 68.3419C53.3064 68.5211 52.9801 68.6112 52.6537 68.6112C52.3581 68.6112 52.062 68.5376 51.794 68.3887C51.2304 68.0762 50.8807 67.4831 50.8807 66.8381V49.1076C50.8807 48.4626 51.2304 47.8695 51.794 47.557C52.3576 47.2428 53.0468 47.2618 53.5934 47.6038L67.7779 56.4691C68.2961 56.7938 68.6112 57.3617 68.6112 57.9728C68.6112 58.584 68.2961 59.152 67.7779 59.4766Z" fill="url(#paint2_linear_281_4758)"/>
<defs>
<linearGradient id="paint0_linear_281_4758" x1="-10.7468" y1="-35.0247" x2="120.88" y2="-32.6485" gradientUnits="userSpaceOnUse">
<stop stop-color="#FFD03F"/>
<stop offset="0.2" stop-color="#FCC939"/>
<stop offset="0.46" stop-color="#F5B82A"/>
<stop offset="0.77" stop-color="#EA9C12"/>
<stop offset="0.9" stop-color="#E58E06"/>
<stop offset="1" stop-color="#DF8800"/>
</linearGradient>
<linearGradient id="paint1_linear_281_4758" x1="5.47026" y1="-13.0386" x2="105.82" y2="-11.227" gradientUnits="userSpaceOnUse">
<stop stop-color="#FFD03F"/>
<stop offset="0.2" stop-color="#FCC939"/>
<stop offset="0.46" stop-color="#F5B82A"/>
<stop offset="0.77" stop-color="#EA9C12"/>
<stop offset="0.9" stop-color="#E58E06"/>
<stop offset="1" stop-color="#DF8800"/>
</linearGradient>
<linearGradient id="paint2_linear_281_4758" x1="24.3019" y1="12.3238" x2="89.243" y2="13.4961" gradientUnits="userSpaceOnUse">
<stop stop-color="#FFD03F"/>
<stop offset="0.2" stop-color="#FCC939"/>
<stop offset="0.46" stop-color="#F5B82A"/>
<stop offset="0.77" stop-color="#EA9C12"/>
<stop offset="0.9" stop-color="#E58E06"/>
<stop offset="1" stop-color="#DF8800"/>
</linearGradient>
</defs>
</svg>
