<svg width="43" height="81" viewBox="0 0 43 81" fill="none" xmlns="http://www.w3.org/2000/svg">
<rect x="42.5" y="0.5" width="80" height="42" rx="21" transform="rotate(90 42.5 0.5)" stroke="#070A0F"/>
<path fill-rule="evenodd" clip-rule="evenodd" d="M21.6577 59.7621C21.8042 59.7317 21.9438 59.6596 22.0574 59.546L28.2483 53.3551C28.4048 53.1986 28.4818 52.9949 28.4818 52.7912C28.4818 52.5875 28.4048 52.3838 28.2483 52.2297C27.9377 51.9192 27.4334 51.9192 27.1229 52.2297L22.291 57.0617V22.0157C22.291 21.576 21.9357 21.2207 21.496 21.2207C21.0563 21.2207 20.701 21.576 20.701 22.0157V57.0618L15.8765 52.2372C15.5659 51.9267 15.0616 51.9267 14.7511 52.2372C14.4406 52.5478 14.4406 53.0521 14.7511 53.3626L20.8957 59.5073C20.9073 59.5205 20.9194 59.5334 20.932 59.546C21.0624 59.6764 21.227 59.7521 21.397 59.7729C21.4831 59.7837 21.5711 59.7803 21.6577 59.7621Z" fill="black"/>
</svg>
