<svg width="47" height="46" viewBox="0 0 47 46" fill="none" xmlns="http://www.w3.org/2000/svg">
<rect x="0.5" width="46" height="46" rx="23" fill="#070A0F"/>
<path fill-rule="evenodd" clip-rule="evenodd" d="M31.6773 14.4388C31.8648 14.3406 32.0913 14.3571 32.2638 14.4793C32.4363 14.6023 32.5248 14.8108 32.494 15.0208L30.4315 28.8958C30.4068 29.0601 30.31 29.2063 30.1675 29.2933C30.0783 29.3473 29.977 29.3751 29.875 29.3751C29.8135 29.3751 29.752 29.3646 29.6935 29.3451L21.8313 26.6578L29.5623 17.3436L19.5715 25.8861L14.8803 24.2826C14.668 24.2098 14.5188 24.0178 14.5015 23.7928C14.485 23.5686 14.6028 23.3556 14.8023 23.2513L31.6773 14.4388ZM21.0625 31.0625V27.584L24.1128 28.6265L22.078 31.3955C21.97 31.5425 21.8005 31.625 21.625 31.625C21.5665 31.625 21.5072 31.616 21.4495 31.5972C21.2185 31.5207 21.0625 31.3055 21.0625 31.0625Z" fill="white"/>
</svg>
