<svg width="62" height="62" viewBox="0 0 62 62" fill="none" xmlns="http://www.w3.org/2000/svg">
<rect width="62" height="62" rx="5" fill="url(#paint0_linear_339_877)"/>
<path fill-rule="evenodd" clip-rule="evenodd" d="M46.4458 14.829C46.7999 14.6434 47.2278 14.6746 47.5536 14.9055C47.8794 15.1378 48.0466 15.5316 47.9885 15.9283L44.0927 42.1365C44.046 42.4467 43.8632 42.723 43.5941 42.8873C43.4255 42.9893 43.2342 43.0417 43.0416 43.0417C42.9254 43.0417 42.8092 43.0219 42.6987 42.985L27.8479 37.9092L42.4508 20.3157L23.5795 36.4514L14.7183 33.4226C14.3174 33.2852 14.0355 32.9225 14.0029 32.4975C13.9717 32.074 14.1941 31.6716 14.571 31.4747L46.4458 14.829ZM26.3958 46.2291V39.6586L32.1573 41.6278L28.3139 46.8581C28.1099 47.1357 27.7898 47.2916 27.4583 47.2916C27.3478 47.2916 27.2358 47.2746 27.1268 47.2391C26.6904 47.0947 26.3958 46.6881 26.3958 46.2291Z" fill="#070A0F"/>
<defs>
<linearGradient id="paint0_linear_339_877" x1="-5.7939" y1="-18.8829" x2="65.1703" y2="-17.6018" gradientUnits="userSpaceOnUse">
<stop stop-color="#FFD03F"/>
<stop offset="0.2" stop-color="#FCC939"/>
<stop offset="0.46" stop-color="#F5B82A"/>
<stop offset="0.77" stop-color="#EA9C12"/>
<stop offset="0.9" stop-color="#E58E06"/>
<stop offset="1" stop-color="#DF8800"/>
</linearGradient>
</defs>
</svg>
