<svg width="98" height="31" viewBox="0 0 98 31" fill="none" xmlns="http://www.w3.org/2000/svg">
<g filter="url(#filter0_b_354_1015)">
<rect width="97.2258" height="30.6452" rx="15.3226" fill="white" fill-opacity="0.6"/>
<rect x="0.5" y="0.5" width="96.2258" height="29.6452" rx="14.8226" stroke="white"/>
<path d="M20.6174 14.0227C20.5477 13.7978 20.3565 13.638 20.1303 13.6167L17.0578 13.3256L15.8429 10.3582C15.7533 10.1408 15.5493 10 15.3226 10C15.0959 10 14.8919 10.1408 14.8023 10.3587L13.5874 13.3256L10.5144 13.6167C10.2886 13.6385 10.0979 13.7978 10.0279 14.0227C9.95777 14.2476 10.0225 14.4943 10.1933 14.6498L12.5157 16.7752L11.8309 19.9231C11.7808 20.1545 11.8669 20.3938 12.0509 20.5326C12.1498 20.6072 12.2656 20.6452 12.3823 20.6452C12.4829 20.6452 12.5827 20.6169 12.6723 20.5609L15.3226 18.908L17.972 20.5609C18.1658 20.6826 18.4102 20.6715 18.5938 20.5326C18.778 20.3934 18.864 20.154 18.8139 19.9231L18.129 16.7752L20.4515 14.6503C20.6223 14.4943 20.6875 14.248 20.6174 14.0227Z" fill="url(#paint0_linear_354_1015)"/>
<path d="M37.2626 14.0227C37.1929 13.7978 37.0017 13.638 36.7755 13.6167L33.703 13.3256L32.4881 10.3582C32.3985 10.1408 32.1945 10 31.9678 10C31.7411 10 31.5371 10.1408 31.4475 10.3587L30.2326 13.3256L27.1596 13.6167C26.9338 13.6385 26.7431 13.7978 26.673 14.0227C26.6029 14.2476 26.6677 14.4943 26.8385 14.6498L29.1609 16.7752L28.4761 19.9231C28.426 20.1545 28.512 20.3938 28.6961 20.5326C28.795 20.6072 28.9107 20.6452 29.0275 20.6452C29.1281 20.6452 29.2279 20.6169 29.3175 20.5609L31.9678 18.908L34.6171 20.5609C34.811 20.6826 35.0554 20.6715 35.239 20.5326C35.4231 20.3934 35.5091 20.154 35.459 19.9231L34.7742 16.7752L37.0966 14.6503C37.2674 14.4943 37.3327 14.248 37.2626 14.0227Z" fill="url(#paint1_linear_354_1015)"/>
<path d="M53.9077 14.0227C53.838 13.7978 53.6468 13.638 53.4206 13.6167L50.3482 13.3256L49.1332 10.3582C49.0436 10.1408 48.8396 10 48.6129 10C48.3863 10 48.1822 10.1408 48.0927 10.3587L46.8777 13.3256L43.8047 13.6167C43.579 13.6385 43.3883 13.7978 43.3182 14.0227C43.2481 14.2476 43.3128 14.4943 43.4836 14.6498L45.806 16.7752L45.1212 19.9231C45.0711 20.1545 45.1572 20.3938 45.3412 20.5326C45.4402 20.6072 45.5559 20.6452 45.6726 20.6452C45.7732 20.6452 45.873 20.6169 45.9626 20.5609L48.6129 18.908L51.2623 20.5609C51.4561 20.6826 51.7005 20.6715 51.8842 20.5326C52.0683 20.3934 52.1543 20.154 52.1042 19.9231L51.4193 16.7752L53.7418 14.6503C53.9126 14.4943 53.9778 14.248 53.9077 14.0227Z" fill="url(#paint2_linear_354_1015)"/>
<path d="M70.5529 14.0227C70.4832 13.7978 70.292 13.638 70.0658 13.6167L66.9933 13.3256L65.7784 10.3582C65.6888 10.1408 65.4848 10 65.2581 10C65.0314 10 64.8274 10.1408 64.7378 10.3587L63.5229 13.3256L60.4499 13.6167C60.2241 13.6385 60.0334 13.7978 59.9633 14.0227C59.8933 14.2476 59.958 14.4943 60.1288 14.6498L62.4512 16.7752L61.7664 19.9231C61.7163 20.1545 61.8024 20.3938 61.9864 20.5326C62.0853 20.6072 62.2011 20.6452 62.3178 20.6452C62.4184 20.6452 62.5182 20.6169 62.6078 20.5609L65.2581 18.908L67.9074 20.5609C68.1013 20.6826 68.3457 20.6715 68.5293 20.5326C68.7135 20.3934 68.7995 20.154 68.7493 19.9231L68.0645 16.7752L70.3869 14.6503C70.5577 14.4943 70.623 14.248 70.5529 14.0227Z" fill="url(#paint3_linear_354_1015)"/>
<path d="M87.198 14.0227C87.1283 13.7978 86.9371 13.638 86.711 13.6167L83.6385 13.3256L82.4235 10.3582C82.334 10.1408 82.1299 10 81.9033 10C81.6766 10 81.4726 10.1408 81.383 10.3587L80.168 13.3256L77.0951 13.6167C76.8693 13.6385 76.6786 13.7978 76.6085 14.0227C76.5384 14.2476 76.6031 14.4943 76.7739 14.6498L79.0964 16.7752L78.4115 19.9231C78.3614 20.1545 78.4475 20.3938 78.6315 20.5326C78.7305 20.6072 78.8462 20.6452 78.9629 20.6452C79.0635 20.6452 79.1634 20.6169 79.2529 20.5609L81.9033 18.908L84.5526 20.5609C84.7465 20.6826 84.9908 20.6715 85.1745 20.5326C85.3586 20.3934 85.4446 20.154 85.3945 19.9231L84.7097 16.7752L87.0321 14.6503C87.2029 14.4943 87.2681 14.248 87.198 14.0227Z" fill="url(#paint4_linear_354_1015)"/>
</g>
<defs>
<filter id="filter0_b_354_1015" x="-4" y="-4" width="105.226" height="38.645" filterUnits="userSpaceOnUse" color-interpolation-filters="sRGB">
<feFlood flood-opacity="0" result="BackgroundImageFix"/>
<feGaussianBlur in="BackgroundImageFix" stdDeviation="2"/>
<feComposite in2="SourceAlpha" operator="in" result="effect1_backgroundBlur_354_1015"/>
<feBlend mode="normal" in="SourceGraphic" in2="effect1_backgroundBlur_354_1015" result="shape"/>
</filter>
<linearGradient id="paint0_linear_354_1015" x1="9.00521" y1="6.75788" x2="21.1895" y2="6.97784" gradientUnits="userSpaceOnUse">
<stop stop-color="#FFD03F"/>
<stop offset="0.2" stop-color="#FCC939"/>
<stop offset="0.46" stop-color="#F5B82A"/>
<stop offset="0.77" stop-color="#EA9C12"/>
<stop offset="0.9" stop-color="#E58E06"/>
<stop offset="1" stop-color="#DF8800"/>
</linearGradient>
<linearGradient id="paint1_linear_354_1015" x1="25.6504" y1="6.75788" x2="37.8347" y2="6.97784" gradientUnits="userSpaceOnUse">
<stop stop-color="#FFD03F"/>
<stop offset="0.2" stop-color="#FCC939"/>
<stop offset="0.46" stop-color="#F5B82A"/>
<stop offset="0.77" stop-color="#EA9C12"/>
<stop offset="0.9" stop-color="#E58E06"/>
<stop offset="1" stop-color="#DF8800"/>
</linearGradient>
<linearGradient id="paint2_linear_354_1015" x1="42.2955" y1="6.75788" x2="54.4798" y2="6.97784" gradientUnits="userSpaceOnUse">
<stop stop-color="#FFD03F"/>
<stop offset="0.2" stop-color="#FCC939"/>
<stop offset="0.46" stop-color="#F5B82A"/>
<stop offset="0.77" stop-color="#EA9C12"/>
<stop offset="0.9" stop-color="#E58E06"/>
<stop offset="1" stop-color="#DF8800"/>
</linearGradient>
<linearGradient id="paint3_linear_354_1015" x1="58.9407" y1="6.75788" x2="71.125" y2="6.97784" gradientUnits="userSpaceOnUse">
<stop stop-color="#FFD03F"/>
<stop offset="0.2" stop-color="#FCC939"/>
<stop offset="0.46" stop-color="#F5B82A"/>
<stop offset="0.77" stop-color="#EA9C12"/>
<stop offset="0.9" stop-color="#E58E06"/>
<stop offset="1" stop-color="#DF8800"/>
</linearGradient>
<linearGradient id="paint4_linear_354_1015" x1="75.5858" y1="6.75788" x2="87.7701" y2="6.97784" gradientUnits="userSpaceOnUse">
<stop stop-color="#FFD03F"/>
<stop offset="0.2" stop-color="#FCC939"/>
<stop offset="0.46" stop-color="#F5B82A"/>
<stop offset="0.77" stop-color="#EA9C12"/>
<stop offset="0.9" stop-color="#E58E06"/>
<stop offset="1" stop-color="#DF8800"/>
</linearGradient>
</defs>
</svg>
