<svg width="39" height="39" viewBox="0 0 39 39" fill="none" xmlns="http://www.w3.org/2000/svg">
<rect width="38.6977" height="38.6977" rx="19.3488" fill="url(#paint0_linear_354_1011)"/>
<path d="M14.6529 24.0448C14.3493 23.7412 14.3493 23.2489 14.6529 22.9453L23.4636 14.1347C23.7672 13.8311 24.2593 13.8311 24.5629 14.1347C24.8665 14.4383 24.8665 14.9306 24.5629 15.2342L15.7524 24.0448C15.4487 24.3484 14.9565 24.3484 14.6529 24.0448Z" fill="#070A0F"/>
<path d="M13.907 14.6842C13.907 14.2549 14.255 13.9068 14.6844 13.9068H24.0133C24.4426 13.9068 24.7907 14.2549 24.7907 14.6842V24.0131C24.7907 24.4425 24.4426 24.7905 24.0133 24.7905C23.5839 24.7905 23.2359 24.4425 23.2359 24.0131V15.4616H14.6844C14.255 15.4616 13.907 15.1137 13.907 14.6842Z" fill="#070A0F"/>
<defs>
<linearGradient id="paint0_linear_354_1011" x1="-3.6163" y1="-11.7859" x2="40.6765" y2="-10.9863" gradientUnits="userSpaceOnUse">
<stop stop-color="#FFD03F"/>
<stop offset="0.2" stop-color="#FCC939"/>
<stop offset="0.46" stop-color="#F5B82A"/>
<stop offset="0.77" stop-color="#EA9C12"/>
<stop offset="0.9" stop-color="#E58E06"/>
<stop offset="1" stop-color="#DF8800"/>
</linearGradient>
</defs>
</svg>
