<svg width="62" height="62" viewBox="0 0 62 62" fill="none" xmlns="http://www.w3.org/2000/svg">
<rect width="62" height="62" rx="5" fill="url(#paint0_linear_339_867)"/>
<path fill-rule="evenodd" clip-rule="evenodd" d="M32.4641 19.5134L32.4639 19.5134C32.0653 19.511 31.6578 19.5086 31.2416 19.5045C30.8999 19.5012 30.563 19.497 30.2309 19.4928H30.2309H30.2308C23.4174 19.4078 18.6766 19.3486 18.0148 27.3336H9.044C9.044 14.6032 20.1458 12.8873 31.0063 12.8873C41.8659 12.8873 52.9685 14.6032 52.9685 27.3336H43.9276C43.3355 19.5774 39.1646 19.5528 32.4641 19.5134ZM13.8864 31.427L13.8851 31.427C13.7672 31.4266 13.648 31.4262 13.5277 31.4262C13.4047 31.4262 13.2828 31.4266 13.1622 31.4271C10.8324 31.4351 8.99951 31.4414 8.99951 28.3778H17.9515H18.0559C18.0559 28.7637 18.0242 29.0975 17.9694 29.3919C17.5844 31.4393 15.9264 31.4338 13.8864 31.427ZM43.9857 28.3778H43.9009C43.9009 28.7663 43.9343 29.1009 43.9968 29.3919C44.4024 31.2778 46.0561 31.2726 48.0864 31.2661C48.2065 31.2657 48.3279 31.2653 48.4505 31.2653C48.5745 31.2653 48.6974 31.2657 48.8189 31.2661C51.1593 31.2738 53.0001 31.2798 53.0001 28.3778H43.9857ZM39.5685 24.9031V26.1834V27.3003C41.7141 29.5288 48.7301 39.0114 48.9826 40.1266V47.829C48.9826 48.5368 48.4066 49.1128 47.6989 49.1128H13.4657C12.758 49.1128 12.182 48.5368 12.182 47.829L12.1786 40.1651C12.4336 39.0166 19.4514 29.5297 21.5961 27.3011V26.1834V24.9031C21.5961 24.3305 22.2559 24.2946 23.0698 24.2946H24.4015C25.2154 24.2946 25.8752 24.3305 25.8752 24.9031V26.0063V26.8621H35.2894V26.0063V24.9031C35.2894 24.3305 35.9492 24.2946 36.7631 24.2946H38.0939C38.9086 24.2946 39.5685 24.3305 39.5685 24.9031ZM24.1636 39.9485C24.1636 40.6383 24.7224 41.1963 25.4114 41.1963C26.1003 41.1963 26.6592 40.6383 26.6592 39.9485C26.6592 39.2588 26.1003 38.7008 25.4114 38.7008C24.7224 38.7008 24.1636 39.2588 24.1636 39.9485ZM24.1636 35.6694C24.1636 36.3592 24.7224 36.9172 25.4114 36.9172C26.1003 36.9172 26.6592 36.3592 26.6592 35.6694C26.6592 34.9796 26.1003 34.4216 25.4114 34.4216C24.7224 34.4216 24.1636 34.9796 24.1636 35.6694ZM24.1636 31.3911C24.1636 32.0809 24.7224 32.6389 25.4114 32.6389C26.1003 32.6389 26.6592 32.0809 26.6592 31.3911C26.6592 30.7022 26.1003 30.1433 25.4114 30.1433C24.7224 30.1433 24.1636 30.7022 24.1636 31.3911ZM29.2986 39.9485C29.2986 40.6383 29.8574 41.1963 30.5464 41.1963C31.2362 41.1963 31.7942 40.6383 31.7942 39.9485C31.7942 39.2588 31.2362 38.7008 30.5464 38.7008C29.8574 38.7008 29.2986 39.2588 29.2986 39.9485ZM29.2986 35.6694C29.2986 36.3592 29.8574 36.9172 30.5464 36.9172C31.2362 36.9172 31.7942 36.3592 31.7942 35.6694C31.7942 34.9796 31.2362 34.4216 30.5464 34.4216C29.8574 34.4216 29.2986 34.9796 29.2986 35.6694ZM29.2986 31.3911C29.2986 32.0809 29.8574 32.6389 30.5464 32.6389C31.2362 32.6389 31.7942 32.0809 31.7942 31.3911C31.7942 30.7022 31.2362 30.1433 30.5464 30.1433C29.8574 30.1433 29.2986 30.7022 29.2986 31.3911ZM34.4335 39.9485C34.4335 40.6383 34.9915 41.1963 35.6813 41.1963C36.3711 41.1963 36.9291 40.6383 36.9291 39.9485C36.9291 39.2588 36.3711 38.7008 35.6813 38.7008C34.9915 38.7008 34.4335 39.2588 34.4335 39.9485ZM34.4335 35.6694C34.4335 36.3592 34.9915 36.9172 35.6813 36.9172C36.3711 36.9172 36.9291 36.3592 36.9291 35.6694C36.9291 34.9796 36.3711 34.4216 35.6813 34.4216C34.9915 34.4216 34.4335 34.9796 34.4335 35.6694ZM34.4335 31.3911C34.4335 32.0809 34.9915 32.6389 35.6813 32.6389C36.3711 32.6389 36.9291 32.0809 36.9291 31.3911C36.9291 30.7022 36.3711 30.1433 35.6813 30.1433C34.9915 30.1433 34.4335 30.7022 34.4335 31.3911Z" fill="#070A0F"/>
<defs>
<linearGradient id="paint0_linear_339_867" x1="-5.7939" y1="-18.8829" x2="65.1703" y2="-17.6018" gradientUnits="userSpaceOnUse">
<stop stop-color="#FFD03F"/>
<stop offset="0.2" stop-color="#FCC939"/>
<stop offset="0.46" stop-color="#F5B82A"/>
<stop offset="0.77" stop-color="#EA9C12"/>
<stop offset="0.9" stop-color="#E58E06"/>
<stop offset="1" stop-color="#DF8800"/>
</linearGradient>
</defs>
</svg>
