<svg width="53" height="53" viewBox="0 0 53 53" fill="none" xmlns="http://www.w3.org/2000/svg">
<rect x="0.669355" y="0.669355" width="50.871" height="50.871" rx="25.4355" stroke="white" stroke-width="1.33871"/>
<path d="M36.5763 19.7953C35.7974 20.1273 34.9676 20.3473 34.1024 20.4541C34.9924 19.9378 35.6718 19.1263 35.9912 18.1483C35.1613 18.629 34.245 18.9686 33.2686 19.1581C32.4806 18.3429 31.3575 17.838 30.1324 17.838C27.7553 17.838 25.8417 19.7126 25.8417 22.0109C25.8417 22.3415 25.8705 22.6595 25.9412 22.9622C22.3717 22.793 19.2132 21.1307 17.0915 18.5985C16.721 19.223 16.5037 19.9378 16.5037 20.7072C16.5037 22.152 17.2695 23.4328 18.4109 24.1743C17.7211 24.1615 17.0443 23.9669 16.471 23.6604C16.471 23.6732 16.471 23.6897 16.471 23.7062C16.471 25.7335 17.9593 27.4174 19.9109 27.8054C19.5614 27.8982 19.1805 27.9427 18.7852 27.9427C18.5103 27.9427 18.2328 27.9275 17.9724 27.8715C18.5287 29.5236 20.1072 30.7382 21.9843 30.7776C20.5235 31.888 18.6687 32.5569 16.6608 32.5569C16.3087 32.5569 15.971 32.5417 15.6333 32.4997C17.5352 33.6914 19.7892 34.3719 22.2199 34.3719C30.1206 34.3719 34.4401 28.0127 34.4401 22.5005C34.4401 22.3161 34.4335 22.138 34.4244 21.9613C35.2765 21.3737 35.9925 20.6398 36.5763 19.7953Z" fill="white"/>
</svg>
